<?xml version="1.0" encoding="UTF-8"?>
<svg width="400px" height="400px" viewBox="0 0 400 400" version="1.1" xmlns="http://www.w3.org/2000/svg" xmlns:xlink="http://www.w3.org/1999/xlink" style="background: #FFFFFF;">
    <!-- Generator: Sketch 57.1 (83088) - https://sketch.com -->
    <title>logo</title>
    <desc>Created with Sketch.</desc>
    <g id="页面-1" stroke="none" stroke-width="1" fill="none" fill-rule="evenodd">
        <g id="origin-5cad6249-f9a3-4dae-96a4-0c055ef4cca5" transform="translate(3.000000, 3.000000)" fill-rule="nonzero">
            <g id="SvgjsG1009" fill="#F84D3C" stroke="#2F3590" stroke-width="6">
                <rect id="矩形" x="0" y="0" width="394" height="394"></rect>
            </g>
            <g id="SvgjsG1011" transform="translate(130.000000, 126.000000)">
                <g id="编组" transform="translate(0.500000, 0.296875)">
                    <g id="路径">
                        <polygon fill="#2F3590" points="0 76.4 39.8 103.2 39.9 49.6"></polygon>
                        <polygon fill="#DADADA" points="79.9 76.3 40.1 49.5 40 103.1"></polygon>
                        <polygon fill="#BABABA" points="119.8 0 79.9 26.9 119.8 49.5"></polygon>
                        <path d="M79.9,76.4 L119.7,103.2 L159.6,76.4 L119.8,49.6 L79.9,76.4 C79.8,76.4 79.9,76.4 79.9,76.4 L79.9,76.4 Z" fill="#000000"></path>
                        <polygon fill="#DADADA" points="40 0 79.9 26.9 40 49.5"></polygon>
                        <polygon fill="#2F3590" points="40 0 0.1 26.9 40 49.5"></polygon>
                        <polygon fill="#BABABA" points="40 103.2 79.8 130 79.9 76.4"></polygon>
                        <polygon fill="#DADADA" points="119.9 103.1 80 76.4 80 130"></polygon>
                        <polygon fill="#BABABA" points="80 76.4 119.8 103.2 119.9 49.6 80 76.4"></polygon>
                        <polygon fill="#2F3590" points="159.9 76.3 120 49.5 119.9 103.1"></polygon>
                        <polygon fill="#BABABA" points="0.1 76.3 40 49.5 0.1 26.9"></polygon>
                        <polygon fill="#BABABA" points="80 76.3 40.1 49.5 80 26.9"></polygon>
                        <polygon fill="#2F3590" points="80 76.3 119.9 49.4 80 26.9"></polygon>
                        <polygon fill="#DADADA" points="119.9 0 159.8 26.9 119.9 49.5"></polygon>
                        <polygon fill="#BABABA" points="160 76.3 120.1 49.4 160 26.9"></polygon>
                    </g>
                </g>
            </g>
            <g id="SvgjsG1013" transform="translate(84.000000, 274.000000)" fill="#2F3590">
                <g id="编组" transform="translate(0.890625, 0.859375)">
                    <path d="M13.55,3.21 L13.55,3.97 L13.55,3.97 C12.6433333,4.02333333 11.98,4.12666667 11.56,4.28 L11.56,4.28 L11.56,4.28 C11.14,4.42666667 10.8533333,4.71666667 10.7,5.15 L10.7,5.15 L10.7,5.15 C10.5533333,5.58333333 10.48,6.28 10.48,7.24 L10.48,7.24 L10.48,26.85 L10.48,26.85 C10.48,27.5566667 10.53,28.0766667 10.63,28.41 L10.63,28.41 L10.63,28.41 C10.73,28.7366667 10.9066667,28.9566667 11.16,29.07 L11.16,29.07 L11.16,29.07 C11.4133333,29.1833333 11.83,29.24 12.41,29.24 L12.41,29.24 L13.67,29.24 L13.67,29.24 C14.5566667,29.24 15.52,28.7966667 16.56,27.91 L16.56,27.91 L16.56,27.91 C17.5933333,27.0233333 18.53,25.8533333 19.37,24.4 L19.37,24.4 L19.37,24.4 C20.2033333,22.94 20.76,21.4266667 21.04,19.86 L21.04,19.86 L21.91,19.86 L21.91,19.86 C21.8366667,20.7666667 21.8,21.93 21.8,23.35 L21.8,23.35 L21.8,23.35 C21.8,26.09 21.89,28.3466667 22.07,30.12 L22.07,30.12 L22.07,30.12 C20.3433333,30.04 17.44,30 13.36,30 L13.36,30 L13.36,30 C7.43333333,30 3,30.04 0.06,30.12 L0.06,30.12 L0.06,29.36 L0.06,29.36 C0.873333333,29.3066667 1.46333333,29.2033333 1.83,29.05 L1.83,29.05 L1.83,29.05 C2.19666667,28.8966667 2.44333333,28.6066667 2.57,28.18 L2.57,28.18 L2.57,28.18 C2.69666667,27.7466667 2.76,27.05 2.76,26.09 L2.76,26.09 L2.76,7.24 L2.76,7.24 C2.76,6.28 2.69,5.58333333 2.55,5.15 L2.55,5.15 L2.55,5.15 C2.41,4.71666667 2.16333333,4.42666667 1.81,4.28 L1.81,4.28 L1.81,4.28 C1.45666667,4.12666667 0.873333333,4.02333333 0.06,3.97 L0.06,3.97 L0.06,3.21 L0.06,3.21 C1.50666667,3.29 3.76333333,3.33 6.83,3.33 L6.83,3.33 L6.83,3.33 C9.74333333,3.33 11.9833333,3.29 13.55,3.21 L13.55,3.21 Z M28.91,0.4 L28.91,0.4 C30.2233333,0.4 31.2433333,0.68 31.97,1.24 L31.97,1.24 L31.97,1.24 C32.69,1.79333333 33.05,2.60333333 33.05,3.67 L33.05,3.67 L33.05,3.67 C33.05,4.73 32.69,5.54 31.97,6.1 L31.97,6.1 L31.97,6.1 C31.2433333,6.66 30.2233333,6.94 28.91,6.94 L28.91,6.94 L28.91,6.94 C27.5633333,6.94 26.5366667,6.66 25.83,6.1 L25.83,6.1 L25.83,6.1 C25.1166667,5.54 24.76,4.73 24.76,3.67 L24.76,3.67 L24.76,3.67 C24.76,2.60333333 25.1166667,1.79333333 25.83,1.24 L25.83,1.24 L25.83,1.24 C26.5366667,0.68 27.5633333,0.4 28.91,0.4 L28.91,0.4 Z M32.55,9.98 L32.55,26.58 L32.55,26.58 C32.55,27.62 32.71,28.3366667 33.03,28.73 L33.03,28.73 L33.03,28.73 C33.3433333,29.1233333 33.8933333,29.32 34.68,29.32 L34.68,29.32 L34.68,30.12 L34.68,30.12 C31.9466667,30.0133333 30.15,29.96 29.29,29.96 L29.29,29.96 L29.29,29.96 C28.4233333,29.96 26.5233333,30.0133333 23.59,30.12 L23.59,30.12 L23.59,29.32 L23.59,29.32 C24.37,29.32 24.92,29.1233333 25.24,28.73 L25.24,28.73 L25.24,28.73 C25.5533333,28.3366667 25.71,27.62 25.71,26.58 L25.71,26.58 L25.71,14.54 L25.71,14.54 C25.71,13.3733333 25.5533333,12.5233333 25.24,11.99 L25.24,11.99 L25.24,11.99 C24.92,11.4566667 24.37,11.19 23.59,11.19 L23.59,11.19 L23.59,10.39 L23.59,10.39 C24.3966667,10.47 25.18,10.51 25.94,10.51 L25.94,10.51 L25.94,10.51 C28.5733333,10.51 30.7766667,10.3333333 32.55,9.98 L32.55,9.98 Z M56.15,9.98 L56.15,25.97 L56.15,25.97 C56.15,27.1366667 56.31,27.9866667 56.63,28.52 L56.63,28.52 L56.63,28.52 C56.9433333,29.0533333 57.4933333,29.32 58.28,29.32 L58.28,29.32 L58.28,30.12 L58.28,30.12 C57.4933333,30.04 56.7066667,30 55.92,30 L55.92,30 L55.92,30 C53.2866667,30 51.0833333,30.1766667 49.31,30.53 L49.31,30.53 L49.31,27.8 L49.31,27.8 C48.17,29.7 46.1566667,30.65 43.27,30.65 L43.27,30.65 L43.27,30.65 C41.2433333,30.65 39.8133333,30.1433333 38.98,29.13 L38.98,29.13 L38.98,29.13 C38.6,28.67 38.32,28.0533333 38.14,27.28 L38.14,27.28 L38.14,27.28 C37.96,26.5133333 37.87,25.4966667 37.87,24.23 L37.87,24.23 L37.87,14.54 L37.87,14.54 C37.87,13.3733333 37.7133333,12.5233333 37.4,11.99 L37.4,11.99 L37.4,11.99 C37.08,11.4566667 36.53,11.19 35.75,11.19 L35.75,11.19 L35.75,10.39 L35.75,10.39 C36.53,10.47 37.3133333,10.51 38.1,10.51 L38.1,10.51 L38.1,10.51 C40.7333333,10.51 42.9366667,10.3333333 44.71,9.98 L44.71,9.98 L44.71,26.28 L44.71,26.28 C44.71,27.0866667 44.8566667,27.6866667 45.15,28.08 L45.15,28.08 L45.15,28.08 C45.4433333,28.4733333 45.92,28.67 46.58,28.67 L46.58,28.67 L46.58,28.67 C47.3133333,28.67 47.9533333,28.41 48.5,27.89 L48.5,27.89 L48.5,27.89 C49.04,27.37 49.31,26.72 49.31,25.94 L49.31,25.94 L49.31,14.54 L49.31,14.54 C49.31,13.3733333 49.1533333,12.5233333 48.84,11.99 L48.84,11.99 L48.84,11.99 C48.52,11.4566667 47.9666667,11.19 47.18,11.19 L47.18,11.19 L47.18,10.39 L47.18,10.39 C47.9666667,10.47 48.7533333,10.51 49.54,10.51 L49.54,10.51 L49.54,10.51 C52.1733333,10.51 54.3766667,10.3333333 56.15,9.98 L56.15,9.98 Z M89.74,3.21 L89.74,3.21 C89.5666667,5.59 89.48,7.72 89.48,9.6 L89.48,9.6 L89.48,9.6 C89.48,10.76 89.5166667,11.67 89.59,12.33 L89.59,12.33 L88.72,12.33 L88.72,12.33 C88.1133333,9.39 87.18,7.28 85.92,6 L85.92,6 L85.92,6 C84.6666667,4.72666667 83.27,4.09 81.73,4.09 L81.73,4.09 L81.23,4.09 L81.23,4.09 C80.55,4.09 80.05,4.14666667 79.73,4.26 L79.73,4.26 L79.73,4.26 C79.4166667,4.37333333 79.2033333,4.58666667 79.09,4.9 L79.09,4.9 L79.09,4.9 C78.97,5.22 78.91,5.74666667 78.91,6.48 L78.91,6.48 L78.91,16.21 L79.29,16.21 L79.29,16.21 C80.61,16.21 81.74,15.69 82.68,14.65 L82.68,14.65 L82.68,14.65 C83.6133333,13.61 84.2066667,12.4566667 84.46,11.19 L84.46,11.19 L85.34,11.19 L85.34,11.19 C85.26,12.2566667 85.22,13.4466667 85.22,14.76 L85.22,14.76 L85.22,16.59 L85.22,16.59 C85.22,17.8833333 85.2966667,19.68 85.45,21.98 L85.45,21.98 L84.58,21.98 L84.58,21.98 C84.3466667,20.54 83.7566667,19.3433333 82.81,18.39 L82.81,18.39 L82.81,18.39 C81.8566667,17.4433333 80.6833333,16.97 79.29,16.97 L79.29,16.97 L78.91,16.97 L78.91,25.71 L78.91,25.71 C78.91,26.77 79.02,27.5433333 79.24,28.03 L79.24,28.03 L79.24,28.03 C79.4533333,28.51 79.8466667,28.83 80.42,28.99 L80.42,28.99 L80.42,28.99 C80.9866667,29.1566667 81.89,29.24 83.13,29.24 L83.13,29.24 L83.13,30.12 L83.13,30.12 C79.71,30.04 77.1,30 75.3,30 L75.3,30 L75.3,30 C74.1133333,30 72.4566667,30.0266667 70.33,30.08 L70.33,30.08 L68.5,30.12 L68.5,29.36 L68.5,29.36 C69.3133333,29.3066667 69.9033333,29.2033333 70.27,29.05 L70.27,29.05 L70.27,29.05 C70.6366667,28.8966667 70.8833333,28.6066667 71.01,28.18 L71.01,28.18 L71.01,28.18 C71.1366667,27.7466667 71.2,27.05 71.2,26.09 L71.2,26.09 L71.2,7.24 L71.2,7.24 C71.2,6.28 71.13,5.58333333 70.99,5.15 L70.99,5.15 L70.99,5.15 C70.85,4.71666667 70.6033333,4.42666667 70.25,4.28 L70.25,4.28 L70.25,4.28 C69.8966667,4.12666667 69.3133333,4.02333333 68.5,3.97 L68.5,3.97 L68.5,3.21 L68.5,3.21 C71.44,3.29 75.8733333,3.33 81.8,3.33 L81.8,3.33 L81.8,3.33 C85.5266667,3.33 88.1733333,3.29 89.74,3.21 L89.74,3.21 Z M103.2,26.51 L103.2,26.51 C105.046667,26.51 106.576667,25.66 107.79,23.96 L107.79,23.96 L108.44,24.19 L108.44,24.19 C107.88,25.9633333 106.936667,27.4833333 105.61,28.75 L105.61,28.75 L105.61,28.75 C104.276667,30.0166667 102.573333,30.65 100.5,30.65 L100.5,30.65 L100.5,30.65 C97.84,30.65 95.71,29.8266667 94.11,28.18 L94.11,28.18 L94.11,28.18 C92.5166667,26.5333333 91.72,23.8966667 91.72,20.27 L91.72,20.27 L91.72,20.27 C91.72,16.8033333 92.6133333,14.2 94.4,12.46 L94.4,12.46 L94.4,12.46 C96.1866667,10.7266667 98.55,9.86 101.49,9.86 L101.49,9.86 L101.49,9.86 C106.276667,9.86 108.67,12.6966667 108.67,18.37 L108.67,18.37 L98.86,18.37 L98.86,18.37 C98.84,18.6766667 98.83,19.1333333 98.83,19.74 L98.83,19.74 L98.83,19.74 C98.83,22.1733333 99.2533333,23.91 100.1,24.95 L100.1,24.95 L100.1,24.95 C100.946667,25.99 101.98,26.51 103.2,26.51 L103.2,26.51 Z M101.22,10.74 L101.22,10.74 C99.8,10.74 98.9633333,13.0433333 98.71,17.65 L98.71,17.65 L103.12,17.65 L103.12,17.65 C103.146667,15.6233333 103,13.9633333 102.68,12.67 L102.68,12.67 L102.68,12.67 C102.366667,11.3833333 101.88,10.74 101.22,10.74 L101.22,10.74 Z M125.46,9.86 L125.46,9.86 C127.486667,9.86 128.92,10.3666667 129.76,11.38 L129.76,11.38 L129.76,11.38 C130.14,11.84 130.416667,12.4566667 130.59,13.23 L130.59,13.23 L130.59,13.23 C130.77,13.9966667 130.86,15.0133333 130.86,16.28 L130.86,16.28 L130.86,26.58 L130.86,26.58 C130.86,27.62 131.02,28.3366667 131.34,28.73 L131.34,28.73 L131.34,28.73 C131.653333,29.1233333 132.203333,29.32 132.99,29.32 L132.99,29.32 L132.99,30.12 L132.99,30.12 C130.25,30.0133333 128.476667,29.96 127.67,29.96 L127.67,29.96 L127.67,29.96 C126.81,29.96 125.01,30.0133333 122.27,30.12 L122.27,30.12 L122.27,29.32 L122.27,29.32 C122.93,29.32 123.386667,29.1233333 123.64,28.73 L123.64,28.73 L123.64,28.73 C123.893333,28.3366667 124.02,27.62 124.02,26.58 L124.02,26.58 L124.02,14.23 L124.02,14.23 C124.02,13.4233333 123.873333,12.8233333 123.58,12.43 L123.58,12.43 L123.58,12.43 C123.293333,12.0366667 122.82,11.84 122.16,11.84 L122.16,11.84 L122.16,11.84 C121.426667,11.84 120.786667,12.1 120.24,12.62 L120.24,12.62 L120.24,12.62 C119.693333,13.14 119.42,13.79 119.42,14.57 L119.42,14.57 L119.42,26.58 L119.42,26.58 C119.42,27.62 119.546667,28.3366667 119.8,28.73 L119.8,28.73 L119.8,28.73 C120.053333,29.1233333 120.51,29.32 121.17,29.32 L121.17,29.32 L121.17,30.12 L121.17,30.12 C118.636667,30.0133333 116.963333,29.96 116.15,29.96 L116.15,29.96 L116.15,29.96 C115.29,29.96 113.39,30.0133333 110.45,30.12 L110.45,30.12 L110.45,29.32 L110.45,29.32 C111.236667,29.32 111.79,29.1233333 112.11,28.73 L112.11,28.73 L112.11,28.73 C112.423333,28.3366667 112.58,27.62 112.58,26.58 L112.58,26.58 L112.58,14.54 L112.58,14.54 C112.58,13.3733333 112.423333,12.5233333 112.11,11.99 L112.11,11.99 L112.11,11.99 C111.79,11.4566667 111.236667,11.19 110.45,11.19 L110.45,11.19 L110.45,10.39 L110.45,10.39 C111.263333,10.47 112.05,10.51 112.81,10.51 L112.81,10.51 L112.81,10.51 C115.443333,10.51 117.646667,10.3333333 119.42,9.98 L119.42,9.98 L119.42,12.71 L119.42,12.71 C120.56,10.81 122.573333,9.86 125.46,9.86 L125.46,9.86 Z M153.01,14.23 L153.01,14.23 C152.483333,14.23 152.023333,14.0466667 151.63,13.68 L151.63,13.68 L151.63,13.68 C151.236667,13.3133333 151.04,12.8 151.04,12.14 L151.04,12.14 L151.04,12.14 C151.04,11.5333333 151.216667,10.8766667 151.57,10.17 L151.57,10.17 L151.57,10.17 C150.456667,10.6233333 149.633333,11.2666667 149.1,12.1 L149.1,12.1 L149.1,12.1 C150.04,13.0933333 150.51,14.3733333 150.51,15.94 L150.51,15.94 L150.51,15.94 C150.51,17.94 149.766667,19.4533333 148.28,20.48 L148.28,20.48 L148.28,20.48 C146.8,21.5066667 144.82,22.02 142.34,22.02 L142.34,22.02 L142.34,22.02 C141.853333,22.02 141.496667,22.0066667 141.27,21.98 L141.27,21.98 L141.27,21.98 C140.61,22.44 140.28,22.9733333 140.28,23.58 L140.28,23.58 L140.28,23.58 C140.28,24.3933333 140.736667,24.8 141.65,24.8 L141.65,24.8 L145.34,24.8 L145.34,24.8 C147.92,24.8 149.94,25.2366667 151.4,26.11 L151.4,26.11 L151.4,26.11 C152.853333,26.9833333 153.58,28.3433333 153.58,30.19 L153.58,30.19 L153.58,30.19 C153.58,31.51 153.156667,32.7 152.31,33.76 L152.31,33.76 L152.31,33.76 C151.463333,34.8266667 150.16,35.6766667 148.4,36.31 L148.4,36.31 L148.4,36.31 C146.64,36.9433333 144.44,37.26 141.8,37.26 L141.8,37.26 L141.8,37.26 C139.193333,37.26 137.143333,36.97 135.65,36.39 L135.65,36.39 L135.65,36.39 C134.156667,35.8033333 133.41,34.98 133.41,33.92 L133.41,33.92 L133.41,33.92 C133.41,33.18 133.776667,32.5066667 134.51,31.9 L134.51,31.9 L134.51,31.9 C135.243333,31.2933333 136.356667,30.8133333 137.85,30.46 L137.85,30.46 L138.23,31.07 L138.23,31.07 C137.55,31.9033333 137.21,32.7133333 137.21,33.5 L137.21,33.5 L137.21,33.5 C137.21,34.4866667 137.66,35.2533333 138.56,35.8 L138.56,35.8 L138.56,35.8 C139.453333,36.34 140.713333,36.61 142.34,36.61 L142.34,36.61 L142.34,36.61 C144.006667,36.61 145.29,36.2766667 146.19,35.61 L146.19,35.61 L146.19,35.61 C147.09,34.9366667 147.54,34.0433333 147.54,32.93 L147.54,32.93 L147.54,32.93 C147.54,32.1433333 147.243333,31.5166667 146.65,31.05 L146.65,31.05 L146.65,31.05 C146.056667,30.5766667 145.01,30.34 143.51,30.34 L143.51,30.34 L141.46,30.34 L141.46,30.34 C139.74,30.34 138.423333,30.0133333 137.51,29.36 L137.51,29.36 L137.51,29.36 C136.596667,28.7 136.14,27.8133333 136.14,26.7 L136.14,26.7 L136.14,26.7 C136.14,25.6866667 136.5,24.8 137.22,24.04 L137.22,24.04 L137.22,24.04 C137.946667,23.28 138.993333,22.57 140.36,21.91 L140.36,21.91 L140.36,21.91 C138.433333,21.6566667 136.92,21.03 135.82,20.03 L135.82,20.03 L135.82,20.03 C134.72,19.03 134.17,17.6666667 134.17,15.94 L134.17,15.94 L134.17,15.94 C134.17,13.94 134.91,12.4266667 136.39,11.4 L136.39,11.4 L136.39,11.4 C137.87,10.3733333 139.853333,9.86 142.34,9.86 L142.34,9.86 L142.34,9.86 C145,9.86 147.05,10.4166667 148.49,11.53 L148.49,11.53 L148.49,11.53 C148.97,10.8766667 149.553333,10.36 150.24,9.98 L150.24,9.98 L150.24,9.98 C150.926667,9.6 151.65,9.41 152.41,9.41 L152.41,9.41 L152.41,9.41 C153.243333,9.41 153.886667,9.64333333 154.34,10.11 L154.34,10.11 L154.34,10.11 C154.8,10.5766667 155.03,11.1766667 155.03,11.91 L155.03,11.91 L155.03,11.91 C155.03,12.6233333 154.84,13.19 154.46,13.61 L154.46,13.61 L154.46,13.61 C154.08,14.0233333 153.596667,14.23 153.01,14.23 L153.01,14.23 Z M142.34,21.34 L142.34,21.34 C142.846667,21.34 143.233333,20.9266667 143.5,20.1 L143.5,20.1 L143.5,20.1 C143.76,19.28 143.89,17.8933333 143.89,15.94 L143.89,15.94 L143.89,15.94 C143.89,13.9933333 143.76,12.6066667 143.5,11.78 L143.5,11.78 L143.5,11.78 C143.233333,10.96 142.846667,10.55 142.34,10.55 L142.34,10.55 L142.34,10.55 C141.833333,10.55 141.446667,10.96 141.18,11.78 L141.18,11.78 L141.18,11.78 C140.913333,12.6066667 140.78,13.9933333 140.78,15.94 L140.78,15.94 L140.78,15.94 C140.78,17.8933333 140.913333,19.28 141.18,20.1 L141.18,20.1 L141.18,20.1 C141.446667,20.9266667 141.833333,21.34 142.34,21.34 L142.34,21.34 Z M164.64,4.24 L164.64,10.39 L168.37,10.39 L168.37,11.15 L164.64,11.15 L164.64,26.92 L164.64,26.92 C164.64,27.4266667 164.73,27.7833333 164.91,27.99 L164.91,27.99 L164.91,27.99 C165.083333,28.19 165.373333,28.29 165.78,28.29 L165.78,28.29 L165.78,28.29 C166.086667,28.29 166.43,28.2033333 166.81,28.03 L166.81,28.03 L166.81,28.03 C167.19,27.85 167.53,27.57 167.83,27.19 L167.83,27.19 L168.4,27.65 L168.4,27.65 C167.24,29.65 165.443333,30.65 163.01,30.65 L163.01,30.65 L163.01,30.65 C161.263333,30.65 159.956667,30.22 159.09,29.36 L159.09,29.36 L159.09,29.36 C158.563333,28.8266667 158.216667,28.1666667 158.05,27.38 L158.05,27.38 L158.05,27.38 C157.883333,26.5933333 157.8,25.49 157.8,24.07 L157.8,24.07 L157.8,11.15 L154.91,11.15 L154.91,10.39 L157.8,10.39 L157.8,5.91 L157.8,5.91 C159.166667,5.91 160.403333,5.77666667 161.51,5.51 L161.51,5.51 L161.51,5.51 C162.61,5.24333333 163.653333,4.82 164.64,4.24 L164.64,4.24 Z M174.48,0.4 L174.48,0.4 C175.8,0.4 176.82,0.68 177.54,1.24 L177.54,1.24 L177.54,1.24 C178.266667,1.79333333 178.63,2.60333333 178.63,3.67 L178.63,3.67 L178.63,3.67 C178.63,4.73 178.266667,5.54 177.54,6.1 L177.54,6.1 L177.54,6.1 C176.82,6.66 175.8,6.94 174.48,6.94 L174.48,6.94 L174.48,6.94 C173.14,6.94 172.116667,6.66 171.41,6.1 L171.41,6.1 L171.41,6.1 C170.696667,5.54 170.34,4.73 170.34,3.67 L170.34,3.67 L170.34,3.67 C170.34,2.60333333 170.696667,1.79333333 171.41,1.24 L171.41,1.24 L171.41,1.24 C172.116667,0.68 173.14,0.4 174.48,0.4 L174.48,0.4 Z M178.13,9.98 L178.13,26.58 L178.13,26.58 C178.13,27.62 178.29,28.3366667 178.61,28.73 L178.61,28.73 L178.61,28.73 C178.923333,29.1233333 179.473333,29.32 180.26,29.32 L180.26,29.32 L180.26,30.12 L180.26,30.12 C177.526667,30.0133333 175.726667,29.96 174.86,29.96 L174.86,29.96 L174.86,29.96 C174,29.96 172.1,30.0133333 169.16,30.12 L169.16,30.12 L169.16,29.32 L169.16,29.32 C169.946667,29.32 170.5,29.1233333 170.82,28.73 L170.82,28.73 L170.82,28.73 C171.133333,28.3366667 171.29,27.62 171.29,26.58 L171.29,26.58 L171.29,14.54 L171.29,14.54 C171.29,13.3733333 171.133333,12.5233333 170.82,11.99 L170.82,11.99 L170.82,11.99 C170.5,11.4566667 169.946667,11.19 169.16,11.19 L169.16,11.19 L169.16,10.39 L169.16,10.39 C169.973333,10.47 170.76,10.51 171.52,10.51 L171.52,10.51 L171.52,10.51 C174.153333,10.51 176.356667,10.3333333 178.13,9.98 L178.13,9.98 Z M196.71,9.86 L196.71,9.86 C198.736667,9.86 200.17,10.3666667 201.01,11.38 L201.01,11.38 L201.01,11.38 C201.39,11.84 201.666667,12.4566667 201.84,13.23 L201.84,13.23 L201.84,13.23 C202.02,13.9966667 202.11,15.0133333 202.11,16.28 L202.11,16.28 L202.11,26.58 L202.11,26.58 C202.11,27.62 202.27,28.3366667 202.59,28.73 L202.59,28.73 L202.59,28.73 C202.903333,29.1233333 203.453333,29.32 204.24,29.32 L204.24,29.32 L204.24,30.12 L204.24,30.12 C201.5,30.0133333 199.726667,29.96 198.92,29.96 L198.92,29.96 L198.92,29.96 C198.06,29.96 196.26,30.0133333 193.52,30.12 L193.52,30.12 L193.52,29.32 L193.52,29.32 C194.18,29.32 194.636667,29.1233333 194.89,28.73 L194.89,28.73 L194.89,28.73 C195.143333,28.3366667 195.27,27.62 195.27,26.58 L195.27,26.58 L195.27,14.23 L195.27,14.23 C195.27,13.4233333 195.123333,12.8233333 194.83,12.43 L194.83,12.43 L194.83,12.43 C194.543333,12.0366667 194.07,11.84 193.41,11.84 L193.41,11.84 L193.41,11.84 C192.676667,11.84 192.036667,12.1 191.49,12.62 L191.49,12.62 L191.49,12.62 C190.943333,13.14 190.67,13.79 190.67,14.57 L190.67,14.57 L190.67,26.58 L190.67,26.58 C190.67,27.62 190.796667,28.3366667 191.05,28.73 L191.05,28.73 L191.05,28.73 C191.303333,29.1233333 191.76,29.32 192.42,29.32 L192.42,29.32 L192.42,30.12 L192.42,30.12 C189.886667,30.0133333 188.213333,29.96 187.4,29.96 L187.4,29.96 L187.4,29.96 C186.54,29.96 184.64,30.0133333 181.7,30.12 L181.7,30.12 L181.7,29.32 L181.7,29.32 C182.486667,29.32 183.04,29.1233333 183.36,28.73 L183.36,28.73 L183.36,28.73 C183.673333,28.3366667 183.83,27.62 183.83,26.58 L183.83,26.58 L183.83,14.54 L183.83,14.54 C183.83,13.3733333 183.673333,12.5233333 183.36,11.99 L183.36,11.99 L183.36,11.99 C183.04,11.4566667 182.486667,11.19 181.7,11.19 L181.7,11.19 L181.7,10.39 L181.7,10.39 C182.513333,10.47 183.3,10.51 184.06,10.51 L184.06,10.51 L184.06,10.51 C186.693333,10.51 188.896667,10.3333333 190.67,9.98 L190.67,9.98 L190.67,12.71 L190.67,12.71 C191.81,10.81 193.823333,9.86 196.71,9.86 L196.71,9.86 Z M224.26,14.23 L224.26,14.23 C223.733333,14.23 223.273333,14.0466667 222.88,13.68 L222.88,13.68 L222.88,13.68 C222.486667,13.3133333 222.29,12.8 222.29,12.14 L222.29,12.14 L222.29,12.14 C222.29,11.5333333 222.466667,10.8766667 222.82,10.17 L222.82,10.17 L222.82,10.17 C221.706667,10.6233333 220.883333,11.2666667 220.35,12.1 L220.35,12.1 L220.35,12.1 C221.29,13.0933333 221.76,14.3733333 221.76,15.94 L221.76,15.94 L221.76,15.94 C221.76,17.94 221.016667,19.4533333 219.53,20.48 L219.53,20.48 L219.53,20.48 C218.05,21.5066667 216.07,22.02 213.59,22.02 L213.59,22.02 L213.59,22.02 C213.103333,22.02 212.746667,22.0066667 212.52,21.98 L212.52,21.98 L212.52,21.98 C211.86,22.44 211.53,22.9733333 211.53,23.58 L211.53,23.58 L211.53,23.58 C211.53,24.3933333 211.986667,24.8 212.9,24.8 L212.9,24.8 L216.59,24.8 L216.59,24.8 C219.17,24.8 221.19,25.2366667 222.65,26.11 L222.65,26.11 L222.65,26.11 C224.103333,26.9833333 224.83,28.3433333 224.83,30.19 L224.83,30.19 L224.83,30.19 C224.83,31.51 224.406667,32.7 223.56,33.76 L223.56,33.76 L223.56,33.76 C222.713333,34.8266667 221.41,35.6766667 219.65,36.31 L219.65,36.31 L219.65,36.31 C217.89,36.9433333 215.69,37.26 213.05,37.26 L213.05,37.26 L213.05,37.26 C210.443333,37.26 208.393333,36.97 206.9,36.39 L206.9,36.39 L206.9,36.39 C205.406667,35.8033333 204.66,34.98 204.66,33.92 L204.66,33.92 L204.66,33.92 C204.66,33.18 205.026667,32.5066667 205.76,31.9 L205.76,31.9 L205.76,31.9 C206.493333,31.2933333 207.606667,30.8133333 209.1,30.46 L209.1,30.46 L209.48,31.07 L209.48,31.07 C208.8,31.9033333 208.46,32.7133333 208.46,33.5 L208.46,33.5 L208.46,33.5 C208.46,34.4866667 208.91,35.2533333 209.81,35.8 L209.81,35.8 L209.81,35.8 C210.703333,36.34 211.963333,36.61 213.59,36.61 L213.59,36.61 L213.59,36.61 C215.256667,36.61 216.54,36.2766667 217.44,35.61 L217.44,35.61 L217.44,35.61 C218.34,34.9366667 218.79,34.0433333 218.79,32.93 L218.79,32.93 L218.79,32.93 C218.79,32.1433333 218.493333,31.5166667 217.9,31.05 L217.9,31.05 L217.9,31.05 C217.306667,30.5766667 216.26,30.34 214.76,30.34 L214.76,30.34 L212.71,30.34 L212.71,30.34 C210.99,30.34 209.673333,30.0133333 208.76,29.36 L208.76,29.36 L208.76,29.36 C207.846667,28.7 207.39,27.8133333 207.39,26.7 L207.39,26.7 L207.39,26.7 C207.39,25.6866667 207.75,24.8 208.47,24.04 L208.47,24.04 L208.47,24.04 C209.196667,23.28 210.243333,22.57 211.61,21.91 L211.61,21.91 L211.61,21.91 C209.683333,21.6566667 208.17,21.03 207.07,20.03 L207.07,20.03 L207.07,20.03 C205.97,19.03 205.42,17.6666667 205.42,15.94 L205.42,15.94 L205.42,15.94 C205.42,13.94 206.16,12.4266667 207.64,11.4 L207.64,11.4 L207.64,11.4 C209.12,10.3733333 211.103333,9.86 213.59,9.86 L213.59,9.86 L213.59,9.86 C216.25,9.86 218.3,10.4166667 219.74,11.53 L219.74,11.53 L219.74,11.53 C220.22,10.8766667 220.803333,10.36 221.49,9.98 L221.49,9.98 L221.49,9.98 C222.176667,9.6 222.9,9.41 223.66,9.41 L223.66,9.41 L223.66,9.41 C224.493333,9.41 225.136667,9.64333333 225.59,10.11 L225.59,10.11 L225.59,10.11 C226.05,10.5766667 226.28,11.1766667 226.28,11.91 L226.28,11.91 L226.28,11.91 C226.28,12.6233333 226.09,13.19 225.71,13.61 L225.71,13.61 L225.71,13.61 C225.33,14.0233333 224.846667,14.23 224.26,14.23 L224.26,14.23 Z M213.59,21.34 L213.59,21.34 C214.096667,21.34 214.483333,20.9266667 214.75,20.1 L214.75,20.1 L214.75,20.1 C215.01,19.28 215.14,17.8933333 215.14,15.94 L215.14,15.94 L215.14,15.94 C215.14,13.9933333 215.01,12.6066667 214.75,11.78 L214.75,11.78 L214.75,11.78 C214.483333,10.96 214.096667,10.55 213.59,10.55 L213.59,10.55 L213.59,10.55 C213.083333,10.55 212.696667,10.96 212.43,11.78 L212.43,11.78 L212.43,11.78 C212.163333,12.6066667 212.03,13.9933333 212.03,15.94 L212.03,15.94 L212.03,15.94 C212.03,17.8933333 212.163333,19.28 212.43,20.1 L212.43,20.1 L212.43,20.1 C212.696667,20.9266667 213.083333,21.34 213.59,21.34 L213.59,21.34 Z" id="形状"></path>
                </g>
            </g>
        </g>
    </g>
</svg>