<?xml version="1.0" encoding="UTF-8"?>
<svg width="1000px" height="256px" viewBox="0 0 1000 256" version="1.1" xmlns="http://www.w3.org/2000/svg" xmlns:xlink="http://www.w3.org/1999/xlink">
    <!-- Generator: Sketch 57.1 (83088) - https://sketch.com -->
    <title>未命名4</title>
    <desc>Created with Sketch.</desc>
    <g id="页面-1" stroke="none" stroke-width="1" fill="none" fill-rule="evenodd">
        <g id="logo">
            <rect id="矩形" stroke="#979797" x="0.5" y="0.5" width="999" height="255"></rect>
            <g id="SvgjsG1013" transform="translate(338.000000, 77.000000)" fill="#FB543A" fill-rule="nonzero">
                <g id="编组">
                    <path d="M36.9764307,7.76578062 L36.9764307,9.83433831 L36.9764307,9.83433831 C34.5022389,9.97950024 32.6920767,10.2607515 31.5459438,10.6780921 L31.5459438,10.6780921 L31.5459438,10.6780921 C30.3998109,11.0772875 29.6175296,11.8666055 29.1991002,13.0460463 L29.1991002,13.0460463 L29.1991002,13.0460463 C28.7988633,14.2254871 28.5987449,16.121665 28.5987449,18.73458 L28.5987449,18.73458 L28.5987449,72.108812 L28.5987449,72.108812 C28.5987449,74.0322078 28.7351893,75.4475368 29.0080781,76.3547988 L29.0080781,76.3547988 L29.0080781,76.3547988 C29.2809669,77.2439158 29.7630705,77.8427088 30.4543887,78.1511779 L30.4543887,78.1511779 L30.4543887,78.1511779 C31.1457068,78.4596469 32.2827435,78.6138816 33.8654985,78.6138816 L33.8654985,78.6138816 L37.3038972,78.6138816 L37.3038972,78.6138816 C39.7235112,78.6138816 42.3523398,77.407223 45.1903832,74.9939056 L45.1903832,74.9939056 L45.1903832,74.9939056 C48.0102339,72.5805882 50.5662923,69.3960981 52.8585581,65.4404352 L52.8585581,65.4404352 L52.8585581,65.4404352 C55.1326312,61.466627 56.6517122,57.347657 57.4158008,53.0835248 L57.4158008,53.0835248 L59.7899333,53.0835248 L59.7899333,53.0835248 C59.5898149,55.5512779 59.4897556,58.7176227 59.4897556,62.5825595 L59.4897556,62.5825595 L59.4897556,62.5825595 C59.4897556,70.0402543 59.7353555,76.1824191 60.2265554,81.0090536 L60.2265554,81.0090536 L60.2265554,81.0090536 C55.5146755,80.7913107 47.5918045,80.6824393 36.457942,80.6824393 L36.457942,80.6824393 L36.457942,80.6824393 C20.2847332,80.6824393 8.18666362,80.7913107 0.163733272,81.0090536 L0.163733272,81.0090536 L0.163733272,78.940496 L0.163733272,78.940496 C2.38322874,78.7953341 3.99327258,78.5140827 4.99386481,78.0967422 L4.99386481,78.0967422 L4.99386481,78.0967422 C5.99445704,77.6794017 6.66758269,76.8900836 7.01324183,75.728788 L7.01324183,75.728788 L7.01324183,75.728788 C7.35890097,74.5493473 7.53173053,72.6531693 7.53173053,70.0402543 L7.53173053,70.0402543 L7.53173053,18.73458 L7.53173053,18.73458 C7.53173053,16.121665 7.34070838,14.2254871 6.95866408,13.0460463 L6.95866408,13.0460463 L6.95866408,13.0460463 C6.57661977,11.8666055 5.90349409,11.0772875 4.93928705,10.6780921 L4.93928705,10.6780921 L4.93928705,10.6780921 C3.97508001,10.2607515 2.38322874,9.97950024 0.163733272,9.83433831 L0.163733272,9.83433831 L0.163733272,7.76578062 L0.163733272,7.76578062 C4.1115244,7.98352353 10.2697147,8.09239499 18.6383042,8.09239499 L18.6383042,8.09239499 L18.6383042,8.09239499 C26.5884642,8.09239499 32.7011729,7.98352353 36.9764307,7.76578062 L36.9764307,7.76578062 Z M78.8921484,0.117560729 L78.8921484,0.117560729 C82.4760877,0.117560729 85.2595534,0.879660931 87.2425453,2.40386134 L87.2425453,2.40386134 L87.2425453,2.40386134 C89.2073446,3.90991649 90.1897442,6.1145635 90.1897442,9.01780238 L90.1897442,9.01780238 L90.1897442,9.01780238 C90.1897442,11.902896 89.2073446,14.107543 87.2425453,15.6317434 L87.2425453,15.6317434 L87.2425453,15.6317434 C85.2595534,17.1559438 82.4760877,17.918044 78.8921484,17.918044 L78.8921484,17.918044 L78.8921484,17.918044 C75.217246,17.918044 72.4155879,17.1559438 70.4871738,15.6317434 L70.4871738,15.6317434 L70.4871738,15.6317434 C68.5405672,14.107543 67.5672637,11.902896 67.5672637,9.01780238 L67.5672637,9.01780238 L67.5672637,9.01780238 C67.5672637,6.1145635 68.5405672,3.90991649 70.4871738,2.40386134 L70.4871738,2.40386134 L70.4871738,2.40386134 C72.4155879,0.879660931 75.217246,0.117560729 78.8921484,0.117560729 L78.8921484,0.117560729 Z M88.8253003,26.1922748 L88.8253003,71.3739297 L88.8253003,71.3739297 C88.8253003,74.2045876 89.2619223,76.1552013 90.1351664,77.2257705 L90.1351664,77.2257705 L90.1351664,77.2257705 C90.9902179,78.2963397 92.4911062,78.8316245 94.6378314,78.8316245 L94.6378314,78.8316245 L94.6378314,81.0090536 L94.6378314,81.0090536 C87.1788713,80.7187297 82.2759694,80.5735678 79.9291258,80.5735678 L79.9291258,80.5735678 L79.9291258,80.5735678 C77.5640896,80.5735678 72.3792026,80.7187297 64.3744649,81.0090536 L64.3744649,81.0090536 L64.3744649,78.8316245 L64.3744649,78.8316245 C66.5029975,78.8316245 68.0038858,78.2963397 68.8771299,77.2257705 L68.8771299,77.2257705 L68.8771299,77.2257705 C69.7321814,76.1552013 70.1597072,74.2045876 70.1597072,71.3739297 L70.1597072,71.3739297 L70.1597072,38.603621 L70.1597072,38.603621 C70.1597072,35.4282034 69.7321814,33.1146849 68.8771299,31.6630655 L68.8771299,31.6630655 L68.8771299,31.6630655 C68.0038858,30.2114462 66.5029975,29.4856364 64.3744649,29.4856364 L64.3744649,29.4856364 L64.3744649,27.3082072 L64.3744649,27.3082072 C66.5757679,27.5259502 68.7133966,27.6348216 70.7873514,27.6348216 L70.7873514,27.6348216 L70.7873514,27.6348216 C77.9734227,27.6348216 83.9860725,27.1539726 88.8253003,26.1922748 L88.8253003,26.1922748 Z M153.227054,26.1922748 L153.227054,69.7136399 L153.227054,69.7136399 C153.227054,72.8890575 153.663676,75.202576 154.53692,76.6541953 L154.53692,76.6541953 L154.53692,76.6541953 C155.391972,78.1058147 156.89286,78.8316245 159.039585,78.8316245 L159.039585,78.8316245 L159.039585,81.0090536 L159.039585,81.0090536 C156.89286,80.7913107 154.746135,80.6824393 152.59941,80.6824393 L152.59941,80.6824393 L152.59941,80.6824393 C145.413339,80.6824393 139.400689,81.1632883 134.561461,82.1249861 L134.561461,82.1249861 L134.561461,74.6945091 L134.561461,74.6945091 C131.450529,79.8659033 125.956368,82.4516005 118.078978,82.4516005 L118.078978,82.4516005 L118.078978,82.4516005 C112.548432,82.4516005 108.646122,81.0725619 106.372049,78.3144851 L106.372049,78.3144851 L106.372049,78.3144851 C105.335072,77.0624633 104.570983,75.3840282 104.079783,73.2791802 L104.079783,73.2791802 L104.079783,73.2791802 C103.588584,71.1924771 103.342984,68.4253278 103.342984,64.9777315 L103.342984,64.9777315 L103.342984,38.603621 L103.342984,38.603621 C103.342984,35.4282034 102.915458,33.1146849 102.060406,31.6630655 L102.060406,31.6630655 L102.060406,31.6630655 C101.187162,30.2114462 99.686274,29.4856364 97.5577415,29.4856364 L97.5577415,29.4856364 L97.5577415,27.3082072 L97.5577415,27.3082072 C99.686274,27.5259502 101.823903,27.6348216 103.970628,27.6348216 L103.970628,27.6348216 L103.970628,27.6348216 C111.156699,27.6348216 117.169349,27.1539726 122.008577,26.1922748 L122.008577,26.1922748 L122.008577,70.5573937 L122.008577,70.5573937 C122.008577,72.7529682 122.408814,74.3860401 123.209287,75.4566093 L123.209287,75.4566093 L123.209287,75.4566093 C124.009761,76.5271786 125.310531,77.0624633 127.111597,77.0624633 L127.111597,77.0624633 L127.111597,77.0624633 C129.112781,77.0624633 130.85927,76.3547988 132.351062,74.9394699 L132.351062,74.9394699 L132.351062,74.9394699 C133.824661,73.5241409 134.561461,71.7549798 134.561461,69.6319863 L134.561461,69.6319863 L134.561461,38.603621 L134.561461,38.603621 C134.561461,35.4282034 134.133935,33.1146849 133.278884,31.6630655 L133.278884,31.6630655 L133.278884,31.6630655 C132.40564,30.2114462 130.895655,29.4856364 128.74893,29.4856364 L128.74893,29.4856364 L128.74893,27.3082072 L128.74893,27.3082072 C130.895655,27.5259502 133.04238,27.6348216 135.189105,27.6348216 L135.189105,27.6348216 L135.189105,27.6348216 C142.375177,27.6348216 148.387826,27.1539726 153.227054,26.1922748 L153.227054,26.1922748 Z M244.890398,7.76578062 L244.890398,7.76578062 C244.417391,14.2436323 244.180887,20.0410374 244.180887,25.157996 L244.180887,25.157996 L244.180887,25.157996 C244.180887,28.3152682 244.280946,30.7920939 244.481065,32.5884729 L244.481065,32.5884729 L242.106932,32.5884729 L242.106932,32.5884729 C240.451407,24.5864208 237.904445,18.8434514 234.466046,15.3595648 L234.466046,15.3595648 L234.466046,15.3595648 C231.04584,11.8938234 227.234493,10.1609527 223.032006,10.1609527 L223.032006,10.1609527 L221.667562,10.1609527 L221.667562,10.1609527 C219.811918,10.1609527 218.447474,10.3151873 217.57423,10.6236564 L217.57423,10.6236564 L217.57423,10.6236564 C216.719179,10.9321255 216.137016,11.5127733 215.827742,12.3655997 L215.827742,12.3655997 L215.827742,12.3655997 C215.500275,13.2365714 215.336542,14.6700456 215.336542,16.6660223 L215.336542,16.6660223 L215.336542,43.1490043 L216.373519,43.1490043 L216.373519,43.1490043 C219.975651,43.1490043 223.059295,41.7336754 225.624449,38.9030175 L225.624449,38.9030175 L225.624449,38.9030175 C228.171411,36.0723596 229.790552,32.9332326 230.48187,29.4856364 L230.48187,29.4856364 L232.883291,29.4856364 L232.883291,29.4856364 C232.66498,32.3888753 232.555825,35.6278012 232.555825,39.202414 L232.555825,39.202414 L232.555825,44.1832831 L232.555825,44.1832831 C232.555825,47.7034602 232.765039,52.5936032 233.183469,58.853712 L233.183469,58.853712 L230.809336,58.853712 L230.809336,58.853712 C230.172596,54.9343396 228.562552,51.6772684 225.979205,49.0824987 L225.979205,49.0824987 L225.979205,49.0824987 C223.377665,46.5058742 220.17577,45.217562 216.373519,45.217562 L216.373519,45.217562 L215.336542,45.217562 L215.336542,69.0059755 L215.336542,69.0059755 C215.336542,71.8910691 215.63672,73.9959172 216.237075,75.32052 L216.237075,75.32052 L216.237075,75.32052 C216.819238,76.6269775 217.8926,77.4979491 219.457163,77.933435 L219.457163,77.933435 L219.457163,77.933435 C221.003533,78.3870661 223.468628,78.6138816 226.852449,78.6138816 L226.852449,78.6138816 L226.852449,81.0090536 L226.852449,81.0090536 C217.519652,80.7913107 210.397255,80.6824393 205.485257,80.6824393 L205.485257,80.6824393 L205.485257,80.6824393 C202.246976,80.6824393 197.726119,80.7550203 191.922684,80.9001822 L191.922684,80.9001822 L186.928819,81.0090536 L186.928819,78.940496 L186.928819,78.940496 C189.148315,78.7953341 190.758359,78.5140827 191.758951,78.0967422 L191.758951,78.0967422 L191.758951,78.0967422 C192.759543,77.6794017 193.432669,76.8900836 193.778328,75.728788 L193.778328,75.728788 L193.778328,75.728788 C194.123987,74.5493473 194.296817,72.6531693 194.296817,70.0402543 L194.296817,70.0402543 L194.296817,18.73458 L194.296817,18.73458 C194.296817,16.121665 194.105794,14.2254871 193.72375,13.0460463 L193.72375,13.0460463 L193.72375,13.0460463 C193.341706,11.8666055 192.66858,11.0772875 191.704373,10.6780921 L191.704373,10.6780921 L191.704373,10.6780921 C190.740166,10.2607515 189.148315,9.97950024 186.928819,9.83433831 L186.928819,9.83433831 L186.928819,7.76578062 L186.928819,7.76578062 C194.95175,7.98352353 207.049819,8.09239499 223.223028,8.09239499 L223.223028,8.09239499 L223.223028,8.09239499 C233.392684,8.09239499 240.61514,7.98352353 244.890398,7.76578062 L244.890398,7.76578062 Z M281.621228,71.1834046 L281.621228,71.1834046 C286.660576,71.1834046 290.835774,68.8698861 294.146824,64.2428492 L294.146824,64.2428492 L295.920601,64.8688601 L295.920601,64.8688601 C294.392424,69.6954946 291.818174,73.83261 288.197848,77.2802062 L288.197848,77.2802062 L288.197848,77.2802062 C284.559332,80.7278025 279.911125,82.4516005 274.253231,82.4516005 L274.253231,82.4516005 L274.253231,82.4516005 C266.994389,82.4516005 261.181858,80.210663 256.815638,75.728788 L256.815638,75.728788 L256.815638,75.728788 C252.46761,71.2469129 250.293596,64.0704695 250.293596,54.1994572 L250.293596,54.1994572 L250.293596,54.1994572 C250.293596,44.7639308 252.731402,37.6782136 257.607015,32.9423052 L257.607015,32.9423052 L257.607015,32.9423052 C262.482628,28.2245421 268.9319,25.8656604 276.95483,25.8656604 L276.95483,25.8656604 L276.95483,25.8656604 C290.017108,25.8656604 296.548245,33.5864614 296.548245,49.028063 L296.548245,49.028063 L269.777855,49.028063 L269.777855,49.028063 C269.723277,49.8627443 269.695988,51.1056932 269.695988,52.7569104 L269.695988,52.7569104 L269.695988,52.7569104 C269.695988,59.379924 270.851218,64.1067599 273.161676,66.9374178 L273.161676,66.9374178 L273.161676,66.9374178 C275.472135,69.7680757 278.291985,71.1834046 281.621228,71.1834046 L281.621228,71.1834046 Z M276.218031,28.2608325 L276.218031,28.2608325 C272.34301,28.2608325 270.05984,34.5300138 269.368522,47.0683768 L269.368522,47.0683768 L281.402917,47.0683768 L281.402917,47.0683768 C281.475689,41.5522228 281.075451,37.0340573 280.202207,33.5138803 L280.202207,33.5138803 L280.202207,33.5138803 C279.347156,30.0118483 278.019097,28.2608325 276.218031,28.2608325 L276.218031,28.2608325 Z M342.366273,25.8656604 L342.366273,25.8656604 C347.89682,25.8656604 351.808225,27.244699 354.10049,30.0027758 L354.10049,30.0027758 L354.10049,30.0027758 C355.137468,31.2547976 355.892461,32.9332326 356.365467,35.0380807 L356.365467,35.0380807 L356.365467,35.0380807 C356.856667,37.1247837 357.102267,39.8919331 357.102267,43.3395294 L357.102267,43.3395294 L357.102267,71.3739297 L357.102267,71.3739297 C357.102267,74.2045876 357.538889,76.1552013 358.412133,77.2257705 L358.412133,77.2257705 L358.412133,77.2257705 C359.267184,78.2963397 360.768072,78.8316245 362.914798,78.8316245 L362.914798,78.8316245 L362.914798,81.0090536 L362.914798,81.0090536 C355.437645,80.7187297 350.598419,80.5735678 348.397115,80.5735678 L348.397115,80.5735678 L348.397115,80.5735678 C346.050271,80.5735678 341.138273,80.7187297 333.66112,81.0090536 L333.66112,81.0090536 L333.66112,78.8316245 L333.66112,78.8316245 C335.462186,78.8316245 336.708379,78.2963397 337.399697,77.2257705 L337.399697,77.2257705 L337.399697,77.2257705 C338.091014,76.1552013 338.436674,74.2045876 338.436674,71.3739297 L338.436674,71.3739297 L338.436674,37.7598672 L338.436674,37.7598672 C338.436674,35.5642927 338.036436,33.9312208 337.235963,32.8606516 L337.235963,32.8606516 L337.235963,32.8606516 C336.453681,31.7900823 335.162009,31.2547976 333.360943,31.2547976 L333.360943,31.2547976 L333.360943,31.2547976 C331.359759,31.2547976 329.613271,31.962462 328.121478,33.377791 L328.121478,33.377791 L328.121478,33.377791 C326.629685,34.7931199 325.88379,36.5622811 325.88379,38.6852745 L325.88379,38.6852745 L325.88379,71.3739297 L325.88379,71.3739297 C325.88379,74.2045876 326.22945,76.1552013 326.920767,77.2257705 L326.920767,77.2257705 L326.920767,77.2257705 C327.612085,78.2963397 328.858278,78.8316245 330.659344,78.8316245 L330.659344,78.8316245 L330.659344,81.0090536 L330.659344,81.0090536 C323.746162,80.7187297 319.179821,80.5735678 316.960326,80.5735678 L316.960326,80.5735678 L316.960326,80.5735678 C314.613483,80.5735678 309.428596,80.7187297 301.405666,81.0090536 L301.405666,81.0090536 L301.405666,78.8316245 L301.405666,78.8316245 C303.552392,78.8316245 305.062375,78.2963397 305.935619,77.2257705 L305.935619,77.2257705 L305.935619,77.2257705 C306.79067,76.1552013 307.218197,74.2045876 307.218197,71.3739297 L307.218197,71.3739297 L307.218197,38.603621 L307.218197,38.603621 C307.218197,35.4282034 306.79067,33.1146849 305.935619,31.6630655 L305.935619,31.6630655 L305.935619,31.6630655 C305.062375,30.2114462 303.552392,29.4856364 301.405666,29.4856364 L301.405666,29.4856364 L301.405666,27.3082072 L301.405666,27.3082072 C303.62516,27.5259502 305.771886,27.6348216 307.845841,27.6348216 L307.845841,27.6348216 L307.845841,27.6348216 C315.031911,27.6348216 321.044563,27.1539726 325.88379,26.1922748 L325.88379,26.1922748 L325.88379,33.6227518 L325.88379,33.6227518 C328.994722,28.4513575 334.488882,25.8656604 342.366273,25.8656604 L342.366273,25.8656604 Z M417.547133,37.7598672 L417.547133,37.7598672 C416.109918,37.7598672 414.85463,37.2608731 413.781268,36.2628846 L413.781268,36.2628846 L413.781268,36.2628846 C412.707907,35.2648962 412.171224,33.8677126 412.171224,32.0713335 L412.171224,32.0713335 L412.171224,32.0713335 C412.171224,30.4201163 412.653329,28.6328101 413.617535,26.7094142 L413.617535,26.7094142 L413.617535,26.7094142 C410.579374,27.9432906 408.332588,29.6943068 406.877182,31.962462 L406.877182,31.962462 L406.877182,31.962462 C409.442336,34.6661031 410.724914,38.1499898 410.724914,42.414122 L410.724914,42.414122 L410.724914,42.414122 C410.724914,47.8576948 408.696441,51.9766649 404.639494,54.7710324 L404.639494,54.7710324 L404.639494,54.7710324 C400.60074,57.5653999 395.197542,58.9625835 388.4299,58.9625835 L388.4299,58.9625835 L388.4299,58.9625835 C387.10184,58.9625835 386.128539,58.9262931 385.50999,58.853712 L385.50999,58.853712 L385.50999,58.853712 C383.708924,60.1057338 382.808391,61.5573531 382.808391,63.2085703 L382.808391,63.2085703 L382.808391,63.2085703 C382.808391,65.4222899 384.054584,66.5291498 386.546967,66.5291498 L386.546967,66.5291498 L396.616563,66.5291498 L396.616563,66.5291498 C403.657094,66.5291498 409.169448,67.7176633 413.153624,70.09469 L413.153624,70.09469 L413.153624,70.09469 C417.119607,72.4717168 419.1026,76.1733463 419.1026,81.1995787 L419.1026,81.1995787 L419.1026,81.1995787 C419.1026,84.7923368 417.947371,88.0312627 415.636912,90.9163563 L415.636912,90.9163563 L415.636912,90.9163563 C413.326453,93.8195952 409.769803,96.1331137 404.96696,97.8569117 L404.96696,97.8569117 L404.96696,97.8569117 C400.164118,99.5807097 394.160564,100.442609 386.9563,100.442609 L386.9563,100.442609 L386.9563,100.442609 C379.842998,100.442609 374.248778,99.6532907 370.17364,98.0746546 L370.17364,98.0746546 L370.17364,98.0746546 C366.098502,96.4778731 364.060931,94.2369357 364.060931,91.3518421 L364.060931,91.3518421 L364.060931,91.3518421 C364.060931,89.3377201 365.061524,87.5050507 367.062708,85.8538335 L367.062708,85.8538335 L367.062708,85.8538335 C369.063891,84.2026163 372.102055,82.8961588 376.177193,81.934461 L376.177193,81.934461 L377.214171,83.5947508 L377.214171,83.5947508 C375.358527,85.862906 374.430705,88.067553 374.430705,90.2086918 L374.430705,90.2086918 L374.430705,90.2086918 C374.430705,92.8941878 375.658705,94.9808906 378.114704,96.4688006 L378.114704,96.4688006 L378.114704,96.4688006 C380.552509,97.9385653 383.990908,98.6734476 388.4299,98.6734476 L388.4299,98.6734476 L388.4299,98.6734476 C392.978047,98.6734476 396.480119,97.7661856 398.936118,95.9516612 L398.936118,95.9516612 L398.936118,95.9516612 C401.392117,94.1189917 402.620117,91.687529 402.620117,88.6572735 L402.620117,88.6572735 L402.620117,88.6572735 C402.620117,86.5161348 401.810546,84.8104821 400.191407,83.540315 L400.191407,83.540315 L400.191407,83.540315 C398.572267,82.2520029 395.71603,81.6078467 391.622699,81.6078467 L391.622699,81.6078467 L386.028479,81.6078467 L386.028479,81.6078467 C381.334791,81.6078467 377.741755,80.7187297 375.249371,78.940496 L375.249371,78.940496 L375.249371,78.940496 C372.756988,77.1441169 371.510795,74.7307995 371.510795,71.700544 L371.510795,71.700544 L371.510795,71.700544 C371.510795,68.9424672 372.493195,66.5291498 374.457994,64.4605921 L374.457994,64.4605921 L374.457994,64.4605921 C376.440987,62.3920344 379.297221,60.459566 383.026702,58.663187 L383.026702,58.663187 L383.026702,58.663187 C377.769044,57.9736679 373.639328,56.2680149 370.637551,53.5462285 L370.637551,53.5462285 L370.637551,53.5462285 C367.635774,50.8244421 366.134886,47.11374 366.134886,42.414122 L366.134886,42.414122 L366.134886,42.414122 C366.134886,36.9705491 368.154263,32.851579 372.193017,30.0572115 L372.193017,30.0572115 L372.193017,30.0572115 C376.231771,27.262844 381.644064,25.8656604 388.4299,25.8656604 L388.4299,25.8656604 L388.4299,25.8656604 C395.688742,25.8656604 401.282962,27.3807883 405.21256,30.4110438 L405.21256,30.4110438 L405.21256,30.4110438 C406.522426,28.6328101 408.114277,27.2265536 409.988114,26.1922748 L409.988114,26.1922748 L409.988114,26.1922748 C411.861951,25.157996 413.835846,24.6408565 415.909801,24.6408565 L415.909801,24.6408565 L415.909801,24.6408565 C418.183873,24.6408565 419.939459,25.27594 421.176554,26.546107 L421.176554,26.546107 L421.176554,26.546107 C422.431843,27.8162741 423.059487,29.449346 423.059487,31.4453226 L423.059487,31.4453226 L423.059487,31.4453226 C423.059487,33.3868635 422.540998,34.9292093 421.504021,36.0723596 L421.504021,36.0723596 L421.504021,36.0723596 C420.467043,37.1973645 419.148082,37.7598672 417.547133,37.7598672 L417.547133,37.7598672 Z M388.4299,57.1117687 L388.4299,57.1117687 C389.812537,57.1117687 390.867705,55.9867638 391.59541,53.7367535 L391.59541,53.7367535 L391.59541,53.7367535 C392.304921,51.5048887 392.659676,47.730678 392.659676,42.414122 L392.659676,42.414122 L392.659676,42.414122 C392.659676,37.1157109 392.304921,33.3415006 391.59541,31.0914904 L391.59541,31.0914904 L391.59541,31.0914904 C390.867705,28.8596255 389.812537,27.7436931 388.4299,27.7436931 L388.4299,27.7436931 L388.4299,27.7436931 C387.047262,27.7436931 385.992094,28.8596255 385.26439,31.0914904 L385.26439,31.0914904 L385.26439,31.0914904 C384.536686,33.3415006 384.172835,37.1157109 384.172835,42.414122 L384.172835,42.414122 L384.172835,42.414122 C384.172835,47.730678 384.536686,51.5048887 385.26439,53.7367535 L385.26439,53.7367535 L385.26439,53.7367535 C385.992094,55.9867638 387.047262,57.1117687 388.4299,57.1117687 L388.4299,57.1117687 Z M449.284099,10.5692206 L449.284099,27.3082072 L459.462851,27.3082072 L459.462851,29.3767649 L449.284099,29.3767649 L449.284099,72.299337 L449.284099,72.299337 C449.284099,73.6783756 449.529699,74.6491459 450.020899,75.2116485 L450.020899,75.2116485 L450.020899,75.2116485 C450.493905,75.7560058 451.285283,76.0281845 452.395032,76.0281845 L452.395032,76.0281845 L452.395032,76.0281845 C453.231891,76.0281845 454.168809,75.7922962 455.205786,75.32052 L455.205786,75.32052 L455.205786,75.32052 C456.242763,74.8305984 457.170585,74.0684982 457.989252,73.0342194 L457.989252,73.0342194 L459.544718,74.2862411 L459.544718,74.2862411 C456.379208,79.729814 451.476305,82.4516005 444.836012,82.4516005 L444.836012,82.4516005 L444.836012,82.4516005 C440.069554,82.4516005 436.503809,81.2812323 434.138772,78.940496 L434.138772,78.940496 L434.138772,78.940496 C432.701557,77.4888766 431.755544,75.6924976 431.300728,73.5513588 L431.300728,73.5513588 L431.300728,73.5513588 C430.845913,71.4102201 430.618506,68.4071824 430.618506,64.5422457 L430.618506,64.5422457 L430.618506,29.3767649 L422.73202,29.3767649 L422.73202,27.3082072 L430.618506,27.3082072 L430.618506,15.114604 L430.618506,15.114604 C434.347987,15.114604 437.72271,14.7516991 440.74268,14.0258894 L440.74268,14.0258894 L440.74268,14.0258894 C443.744457,13.3000797 446.591596,12.1478568 449.284099,10.5692206 L449.284099,10.5692206 Z M476.136356,0.117560729 L476.136356,0.117560729 C479.738488,0.117560729 482.521954,0.879660931 484.486753,2.40386134 L484.486753,2.40386134 L484.486753,2.40386134 C486.469746,3.90991649 487.461241,6.1145635 487.461241,9.01780238 L487.461241,9.01780238 L487.461241,9.01780238 C487.461241,11.902896 486.469746,14.107543 484.486753,15.6317434 L484.486753,15.6317434 L484.486753,15.6317434 C482.521954,17.1559438 479.738488,17.918044 476.136356,17.918044 L476.136356,17.918044 L476.136356,17.918044 C472.479646,17.918044 469.687085,17.1559438 467.75867,15.6317434 L467.75867,15.6317434 L467.75867,15.6317434 C465.812065,14.107543 464.83876,11.902896 464.83876,9.01780238 L464.83876,9.01780238 L464.83876,9.01780238 C464.83876,6.1145635 465.812065,3.90991649 467.75867,2.40386134 L467.75867,2.40386134 L467.75867,2.40386134 C469.687085,0.879660931 472.479646,0.117560729 476.136356,0.117560729 L476.136356,0.117560729 Z M486.096797,26.1922748 L486.096797,71.3739297 L486.096797,71.3739297 C486.096797,74.2045876 486.533419,76.1552013 487.406663,77.2257705 L487.406663,77.2257705 L487.406663,77.2257705 C488.261714,78.2963397 489.762602,78.8316245 491.909328,78.8316245 L491.909328,78.8316245 L491.909328,81.0090536 L491.909328,81.0090536 C484.450369,80.7187297 479.538371,80.5735678 477.173333,80.5735678 L477.173333,80.5735678 L477.173333,80.5735678 C474.82649,80.5735678 469.641603,80.7187297 461.618673,81.0090536 L461.618673,81.0090536 L461.618673,78.8316245 L461.618673,78.8316245 C463.765399,78.8316245 465.275382,78.2963397 466.148626,77.2257705 L466.148626,77.2257705 L466.148626,77.2257705 C467.003677,76.1552013 467.431204,74.2045876 467.431204,71.3739297 L467.431204,71.3739297 L467.431204,38.603621 L467.431204,38.603621 C467.431204,35.4282034 467.003677,33.1146849 466.148626,31.6630655 L466.148626,31.6630655 L466.148626,31.6630655 C465.275382,30.2114462 463.765399,29.4856364 461.618673,29.4856364 L461.618673,29.4856364 L461.618673,27.3082072 L461.618673,27.3082072 C463.838167,27.5259502 465.984893,27.6348216 468.058848,27.6348216 L468.058848,27.6348216 L468.058848,27.6348216 C475.244918,27.6348216 481.25757,27.1539726 486.096797,26.1922748 L486.096797,26.1922748 Z M536.799533,25.8656604 L536.799533,25.8656604 C542.33008,25.8656604 546.241486,27.244699 548.533751,30.0027758 L548.533751,30.0027758 L548.533751,30.0027758 C549.570729,31.2547976 550.325722,32.9332326 550.798728,35.0380807 L550.798728,35.0380807 L550.798728,35.0380807 C551.289928,37.1247837 551.535528,39.8919331 551.535528,43.3395294 L551.535528,43.3395294 L551.535528,71.3739297 L551.535528,71.3739297 C551.535528,74.2045876 551.97215,76.1552013 552.845394,77.2257705 L552.845394,77.2257705 L552.845394,77.2257705 C553.700445,78.2963397 555.201333,78.8316245 557.348059,78.8316245 L557.348059,78.8316245 L557.348059,81.0090536 L557.348059,81.0090536 C549.870906,80.7187297 545.031679,80.5735678 542.830376,80.5735678 L542.830376,80.5735678 L542.830376,80.5735678 C540.483532,80.5735678 535.571534,80.7187297 528.094381,81.0090536 L528.094381,81.0090536 L528.094381,78.8316245 L528.094381,78.8316245 C529.895447,78.8316245 531.14164,78.2963397 531.832958,77.2257705 L531.832958,77.2257705 L531.832958,77.2257705 C532.524275,76.1552013 532.869935,74.2045876 532.869935,71.3739297 L532.869935,71.3739297 L532.869935,37.7598672 L532.869935,37.7598672 C532.869935,35.5642927 532.469697,33.9312208 531.669224,32.8606516 L531.669224,32.8606516 L531.669224,32.8606516 C530.886942,31.7900823 529.59527,31.2547976 527.794204,31.2547976 L527.794204,31.2547976 L527.794204,31.2547976 C525.79302,31.2547976 524.046532,31.962462 522.554739,33.377791 L522.554739,33.377791 L522.554739,33.377791 C521.062946,34.7931199 520.317051,36.5622811 520.317051,38.6852745 L520.317051,38.6852745 L520.317051,71.3739297 L520.317051,71.3739297 C520.317051,74.2045876 520.662711,76.1552013 521.354028,77.2257705 L521.354028,77.2257705 L521.354028,77.2257705 C522.045345,78.2963397 523.291539,78.8316245 525.092605,78.8316245 L525.092605,78.8316245 L525.092605,81.0090536 L525.092605,81.0090536 C518.179423,80.7187297 513.613082,80.5735678 511.393587,80.5735678 L511.393587,80.5735678 L511.393587,80.5735678 C509.046744,80.5735678 503.861857,80.7187297 495.838927,81.0090536 L495.838927,81.0090536 L495.838927,78.8316245 L495.838927,78.8316245 C497.985653,78.8316245 499.495636,78.2963397 500.36888,77.2257705 L500.36888,77.2257705 L500.36888,77.2257705 C501.223931,76.1552013 501.651458,74.2045876 501.651458,71.3739297 L501.651458,71.3739297 L501.651458,38.603621 L501.651458,38.603621 C501.651458,35.4282034 501.223931,33.1146849 500.36888,31.6630655 L500.36888,31.6630655 L500.36888,31.6630655 C499.495636,30.2114462 497.985653,29.4856364 495.838927,29.4856364 L495.838927,29.4856364 L495.838927,27.3082072 L495.838927,27.3082072 C498.058421,27.5259502 500.205147,27.6348216 502.279102,27.6348216 L502.279102,27.6348216 L502.279102,27.6348216 C509.465172,27.6348216 515.477824,27.1539726 520.317051,26.1922748 L520.317051,26.1922748 L520.317051,33.6227518 L520.317051,33.6227518 C523.427983,28.4513575 528.922143,25.8656604 536.799533,25.8656604 L536.799533,25.8656604 Z M611.980394,37.7598672 L611.980394,37.7598672 C610.543179,37.7598672 609.287891,37.2608731 608.214529,36.2628846 L608.214529,36.2628846 L608.214529,36.2628846 C607.141167,35.2648962 606.604485,33.8677126 606.604485,32.0713335 L606.604485,32.0713335 L606.604485,32.0713335 C606.604485,30.4201163 607.08659,28.6328101 608.050796,26.7094142 L608.050796,26.7094142 L608.050796,26.7094142 C605.012635,27.9432906 602.765849,29.6943068 601.310443,31.962462 L601.310443,31.962462 L601.310443,31.962462 C603.875597,34.6661031 605.158175,38.1499898 605.158175,42.414122 L605.158175,42.414122 L605.158175,42.414122 C605.158175,47.8576948 603.129702,51.9766649 599.072755,54.7710324 L599.072755,54.7710324 L599.072755,54.7710324 C595.034001,57.5653999 589.630803,58.9625835 582.863161,58.9625835 L582.863161,58.9625835 L582.863161,58.9625835 C581.535101,58.9625835 580.5618,58.9262931 579.943251,58.853712 L579.943251,58.853712 L579.943251,58.853712 C578.142185,60.1057338 577.241652,61.5573531 577.241652,63.2085703 L577.241652,63.2085703 L577.241652,63.2085703 C577.241652,65.4222899 578.487845,66.5291498 580.980228,66.5291498 L580.980228,66.5291498 L591.049824,66.5291498 L591.049824,66.5291498 C598.090355,66.5291498 603.602709,67.7176633 607.586885,70.09469 L607.586885,70.09469 L607.586885,70.09469 C611.552868,72.4717168 613.53586,76.1733463 613.53586,81.1995787 L613.53586,81.1995787 L613.53586,81.1995787 C613.53586,84.7923368 612.380632,88.0312627 610.070173,90.9163563 L610.070173,90.9163563 L610.070173,90.9163563 C607.759714,93.8195952 604.203064,96.1331137 599.400221,97.8569117 L599.400221,97.8569117 L599.400221,97.8569117 C594.597379,99.5807097 588.593825,100.442609 581.389561,100.442609 L581.389561,100.442609 L581.389561,100.442609 C574.276259,100.442609 568.682039,99.6532907 564.606901,98.0746546 L564.606901,98.0746546 L564.606901,98.0746546 C560.531763,96.4778731 558.494192,94.2369357 558.494192,91.3518421 L558.494192,91.3518421 L558.494192,91.3518421 C558.494192,89.3377201 559.494785,87.5050507 561.495969,85.8538335 L561.495969,85.8538335 L561.495969,85.8538335 C563.497152,84.2026163 566.535316,82.8961588 570.610454,81.934461 L570.610454,81.934461 L571.647432,83.5947508 L571.647432,83.5947508 C569.791788,85.862906 568.863966,88.067553 568.863966,90.2086918 L568.863966,90.2086918 L568.863966,90.2086918 C568.863966,92.8941878 570.091966,94.9808906 572.547965,96.4688006 L572.547965,96.4688006 L572.547965,96.4688006 C574.98577,97.9385653 578.424169,98.6734476 582.863161,98.6734476 L582.863161,98.6734476 L582.863161,98.6734476 C587.411308,98.6734476 590.91338,97.7661856 593.369379,95.9516612 L593.369379,95.9516612 L593.369379,95.9516612 C595.825378,94.1189917 597.053378,91.687529 597.053378,88.6572735 L597.053378,88.6572735 L597.053378,88.6572735 C597.053378,86.5161348 596.243807,84.8104821 594.624668,83.540315 L594.624668,83.540315 L594.624668,83.540315 C593.005528,82.2520029 590.149291,81.6078467 586.05596,81.6078467 L586.05596,81.6078467 L580.461739,81.6078467 L580.461739,81.6078467 C575.768052,81.6078467 572.175016,80.7187297 569.682632,78.940496 L569.682632,78.940496 L569.682632,78.940496 C567.190249,77.1441169 565.944056,74.7307995 565.944056,71.700544 L565.944056,71.700544 L565.944056,71.700544 C565.944056,68.9424672 566.926456,66.5291498 568.891255,64.4605921 L568.891255,64.4605921 L568.891255,64.4605921 C570.874248,62.3920344 573.730482,60.459566 577.459963,58.663187 L577.459963,58.663187 L577.459963,58.663187 C572.202305,57.9736679 568.072589,56.2680149 565.070812,53.5462285 L565.070812,53.5462285 L565.070812,53.5462285 C562.069035,50.8244421 560.568147,47.11374 560.568147,42.414122 L560.568147,42.414122 L560.568147,42.414122 C560.568147,36.9705491 562.587524,32.851579 566.626278,30.0572115 L566.626278,30.0572115 L566.626278,30.0572115 C570.665032,27.262844 576.077325,25.8656604 582.863161,25.8656604 L582.863161,25.8656604 L582.863161,25.8656604 C590.122003,25.8656604 595.716223,27.3807883 599.645821,30.4110438 L599.645821,30.4110438 L599.645821,30.4110438 C600.955687,28.6328101 602.547538,27.2265536 604.421375,26.1922748 L604.421375,26.1922748 L604.421375,26.1922748 C606.295212,25.157996 608.269107,24.6408565 610.343062,24.6408565 L610.343062,24.6408565 L610.343062,24.6408565 C612.617134,24.6408565 614.37272,25.27594 615.609815,26.546107 L615.609815,26.546107 L615.609815,26.546107 C616.865104,27.8162741 617.492748,29.449346 617.492748,31.4453226 L617.492748,31.4453226 L617.492748,31.4453226 C617.492748,33.3868635 616.974259,34.9292093 615.937282,36.0723596 L615.937282,36.0723596 L615.937282,36.0723596 C614.900304,37.1973645 613.581343,37.7598672 611.980394,37.7598672 L611.980394,37.7598672 Z M582.863161,57.1117687 L582.863161,57.1117687 C584.245798,57.1117687 585.300966,55.9867638 586.028671,53.7367535 L586.028671,53.7367535 L586.028671,53.7367535 C586.738182,51.5048887 587.092937,47.730678 587.092937,42.414122 L587.092937,42.414122 L587.092937,42.414122 C587.092937,37.1157109 586.738182,33.3415006 586.028671,31.0914904 L586.028671,31.0914904 L586.028671,31.0914904 C585.300966,28.8596255 584.245798,27.7436931 582.863161,27.7436931 L582.863161,27.7436931 L582.863161,27.7436931 C581.480523,27.7436931 580.425355,28.8596255 579.697651,31.0914904 L579.697651,31.0914904 L579.697651,31.0914904 C578.969947,33.3415006 578.606096,37.1157109 578.606096,42.414122 L578.606096,42.414122 L578.606096,42.414122 C578.606096,47.730678 578.969947,51.5048887 579.697651,53.7367535 L579.697651,53.7367535 L579.697651,53.7367535 C580.425355,55.9867638 581.480523,57.1117687 582.863161,57.1117687 L582.863161,57.1117687 Z" id="形状"></path>
                </g>
            </g>
            <g id="SvgjsG1011" transform="translate(45.000000, 29.000000)" fill-rule="nonzero">
                <g id="编组">
                    <g id="路径">
                        <polygon fill="#FB543A" points="0 115.775385 60.44625 156.387692 60.598125 75.1630769"></polygon>
                        <polygon fill="#DADADA" points="121.348125 115.623846 60.901875 75.0115385 60.75 156.236154"></polygon>
                        <polygon fill="#E9E3C5" points="181.94625 0 121.348125 40.7638462 181.94625 75.0115385"></polygon>
                        <path d="M121.348125,115.775385 L181.794375,156.387692 L242.3925,115.775385 L181.94625,75.1630769 L121.348125,115.775385 C121.19625,115.775385 121.348125,115.775385 121.348125,115.775385 L121.348125,115.775385 Z" fill="#000000"></path>
                        <polygon fill="#DADADA" points="60.75 0 121.348125 40.7638462 60.75 75.0115385"></polygon>
                        <polygon fill="#FB543A" points="60.75 0 0.151875 40.7638462 60.75 75.0115385"></polygon>
                        <polygon fill="#E9E3C5" points="60.75 156.387692 121.19625 197 121.348125 115.775385"></polygon>
                        <polygon fill="#DADADA" points="182.098125 156.236154 121.5 115.775385 121.5 197"></polygon>
                        <polygon fill="#E9E3C5" points="121.5 115.775385 181.94625 156.387692 182.098125 75.1630769"></polygon>
                        <polygon fill="#FB543A" points="242.848125 115.623846 182.25 75.0115385 182.098125 156.236154"></polygon>
                        <polygon fill="#E9E3C5" points="0.151875 115.623846 60.75 75.0115385 0.151875 40.7638462"></polygon>
                        <polygon fill="#E9E3C5" points="121.5 115.623846 60.901875 75.0115385 121.5 40.7638462"></polygon>
                        <polygon fill="#FB543A" points="121.5 115.623846 182.098125 74.86 121.5 40.7638462"></polygon>
                        <polygon fill="#DADADA" points="182.098125 0 242.69625 40.7638462 182.098125 75.0115385"></polygon>
                        <polygon fill="#E9E3C5" points="243 115.623846 182.401875 74.86 243 40.7638462"></polygon>
                    </g>
                </g>
            </g>
        </g>
    </g>
</svg>