<?xml version="1.0" encoding="UTF-8"?>
<svg width="1000px" height="256px" viewBox="0 0 1000 256" version="1.1" xmlns="http://www.w3.org/2000/svg" xmlns:xlink="http://www.w3.org/1999/xlink">
    <!-- Generator: Sketch 57.1 (83088) - https://sketch.com -->
    <title>未命名3</title>
    <desc>Created with Sketch.</desc>
    <g id="页面-1" stroke="none" stroke-width="1" fill="none" fill-rule="evenodd">
        <g id="logo">
            <rect id="矩形" x="0.5" y="0.5" width="999" height="255"></rect>
            <g id="SvgjsG1013" transform="translate(339.000000, 74.000000)" fill="#FB543A" fill-rule="nonzero">
                <g id="编组">
                    <path d="M39.5492244,8.30400304 L39.5492244,10.5159261 L39.5492244,10.5159261 C36.9028801,10.6711488 34.9667681,10.9718927 33.7408881,11.4181579 L33.7408881,11.4181579 L33.7408881,11.4181579 C32.5150081,11.8450203 31.6782962,12.6890435 31.2307528,13.9502277 L31.2307528,13.9502277 L31.2307528,13.9502277 C30.8026677,15.2114119 30.5886252,17.2390081 30.5886252,20.0330162 L30.5886252,20.0330162 L30.5886252,77.1064524 L30.5886252,77.1064524 C30.5886252,79.1631529 30.7345633,80.676574 31.0264395,81.6467155 L31.0264395,81.6467155 L31.0264395,81.6467155 C31.3183157,82.5974545 31.8339638,83.237748 32.5733834,83.5675962 L32.5733834,83.5675962 L32.5733834,83.5675962 C33.3128029,83.8974442 34.5289538,84.0623684 36.2218358,84.0623684 L36.2218358,84.0623684 L39.8994758,84.0623684 L39.8994758,84.0623684 C42.4874448,84.0623684 45.2991854,82.77208 48.3346979,80.191503 L48.3346979,80.191503 L48.3346979,80.191503 C51.3507518,77.610926 54.0846589,74.2057287 56.5364189,69.9759109 L56.5364189,69.9759109 L56.5364189,69.9759109 C58.9687204,65.7266903 60.593498,61.3222471 61.4107513,56.762581 L61.4107513,56.762581 L63.9500743,56.762581 L63.9500743,56.762581 C63.7360318,59.4013665 63.6290104,62.7871609 63.6290104,66.9199646 L63.6290104,66.9199646 L63.6290104,66.9199646 C63.6290104,74.8945294 63.891699,81.4623887 64.4170762,86.6235425 L64.4170762,86.6235425 L64.4170762,86.6235425 C59.3773471,86.3907085 50.9032084,86.2742915 38.9946596,86.2742915 L38.9946596,86.2742915 L38.9946596,86.2742915 C21.6961305,86.2742915 8.75628585,86.3907085 0.175125716,86.6235425 L0.175125716,86.6235425 L0.175125716,84.4116195 L0.175125716,84.4116195 C2.5490521,84.2563969 4.27112164,83.9556528 5.34133437,83.5093877 L5.34133437,83.5093877 L5.34133437,83.5093877 C6.41154709,83.0631226 7.13150835,82.2190993 7.5012182,80.9773179 L7.5012182,80.9773179 L7.5012182,80.9773179 C7.87092806,79.7161337 8.05578298,77.6885375 8.05578298,74.8945294 L8.05578298,74.8945294 L8.05578298,20.0330162 L8.05578298,20.0330162 C8.05578298,17.2390081 7.85146964,15.2114119 7.44284297,13.9502277 L7.44284297,13.9502277 L7.44284297,13.9502277 C7.03421629,12.6890435 6.31425501,11.8450203 5.28295913,11.4181579 L5.28295913,11.4181579 L5.28295913,11.4181579 C4.25166325,10.9718927 2.5490521,10.6711488 0.175125716,10.5159261 L0.175125716,10.5159261 L0.175125716,8.30400304 L0.175125716,8.30400304 C4.39760134,8.53683704 10.9842741,8.65325405 19.9351441,8.65325405 L19.9351441,8.65325405 L19.9351441,8.65325405 C28.4384706,8.65325405 34.9764972,8.53683704 39.5492244,8.30400304 L39.5492244,8.30400304 Z M84.3814079,0.125708502 L84.3814079,0.125708502 C88.2147152,0.125708502 91.1918524,0.94062753 93.3128195,2.57046559 L93.3128195,2.57046559 L93.3128195,2.57046559 C95.4143281,4.1809008 96.4650824,6.53834513 96.4650824,9.64279858 L96.4650824,9.64279858 L96.4650824,9.64279858 C96.4650824,12.7278492 95.4143281,15.0852935 93.3128195,16.7151316 L93.3128195,16.7151316 L93.3128195,16.7151316 C91.1918524,18.3449696 88.2147152,19.1598886 84.3814079,19.1598886 L84.3814079,19.1598886 L84.3814079,19.1598886 C80.4508084,19.1598886 77.4542129,18.3449696 75.3916212,16.7151316 L75.3916212,16.7151316 L75.3916212,16.7151316 C73.3095711,15.0852935 72.2685458,12.7278492 72.2685458,9.64279858 L72.2685458,9.64279858 L72.2685458,9.64279858 C72.2685458,6.53834513 73.3095711,4.1809008 75.3916212,2.57046559 L75.3916212,2.57046559 L75.3916212,2.57046559 C77.4542129,0.94062753 80.4508084,0.125708502 84.3814079,0.125708502 L84.3814079,0.125708502 Z M95.0057015,28.007581 L95.0057015,76.3206377 L95.0057015,76.3206377 C95.0057015,79.3474798 95.4727033,81.4332846 96.4067071,82.5780516 L96.4067071,82.5780516 L96.4067071,82.5780516 C97.3212525,83.7228187 98.9265715,84.2952024 101.222664,84.2952024 L101.222664,84.2952024 L101.222664,86.6235425 L101.222664,86.6235425 C93.2447151,86.3130971 88.0006728,86.1578745 85.4905375,86.1578745 L85.4905375,86.1578745 L85.4905375,86.1578745 C82.9609437,86.1578745 77.415296,86.3130971 68.8535943,86.6235425 L68.8535943,86.6235425 L68.8535943,84.2952024 L68.8535943,84.2952024 C71.1302287,84.2952024 72.7355478,83.7228187 73.6695516,82.5780516 L73.6695516,82.5780516 L73.6695516,82.5780516 C74.5840969,81.4332846 75.0413697,79.3474798 75.0413697,76.3206377 L75.0413697,76.3206377 L75.0413697,41.2791195 L75.0413697,41.2791195 C75.0413697,37.8836234 74.5840969,35.4097621 73.6695516,33.8575354 L73.6695516,33.8575354 L73.6695516,33.8575354 C72.7355478,32.3053088 71.1302287,31.5291954 68.8535943,31.5291954 L68.8535943,31.5291954 L68.8535943,29.2008552 L68.8535943,29.2008552 C71.2080624,29.4336893 73.4944258,29.5501063 75.7126849,29.5501063 L75.7126849,29.5501063 L75.7126849,29.5501063 C83.3987579,29.5501063 89.8297636,29.0359311 95.0057015,28.007581 L95.0057015,28.007581 Z M163.888483,28.007581 L163.888483,74.5452783 L163.888483,74.5452783 C163.888483,77.9407744 164.355485,80.4146357 165.289489,81.9668623 L165.289489,81.9668623 L165.289489,81.9668623 C166.204035,83.519089 167.809353,84.2952024 170.105446,84.2952024 L170.105446,84.2952024 L170.105446,86.6235425 L170.105446,86.6235425 C167.809353,86.3907085 165.513261,86.2742915 163.217168,86.2742915 L163.217168,86.2742915 L163.217168,86.2742915 C155.531096,86.2742915 149.10009,86.7884667 143.924152,87.8168168 L143.924152,87.8168168 L143.924152,79.8713563 L143.924152,79.8713563 C140.596763,85.4011639 134.720322,88.1660679 126.294829,88.1660679 L126.294829,88.1660679 L126.294829,88.1660679 C120.379472,88.1660679 116.205642,86.6914523 113.77334,83.7422217 L113.77334,83.7422217 L113.77334,83.7422217 C112.664211,82.4034261 111.846958,80.6086638 111.32158,78.3579353 L111.32158,78.3579353 L111.32158,78.3579353 C110.796204,76.1266092 110.533515,73.1676773 110.533515,69.4811386 L110.533515,69.4811386 L110.533515,41.2791195 L110.533515,41.2791195 C110.533515,37.8836234 110.076242,35.4097621 109.161696,33.8575354 L109.161696,33.8575354 L109.161696,33.8575354 C108.227693,32.3053088 106.622374,31.5291954 104.34574,31.5291954 L104.34574,31.5291954 L104.34574,29.2008552 L104.34574,29.2008552 C106.622374,29.4336893 108.908738,29.5501063 111.20483,29.5501063 L111.20483,29.5501063 L111.20483,29.5501063 C118.890903,29.5501063 125.321909,29.0359311 130.497847,28.007581 L130.497847,28.007581 L130.497847,75.4475101 L130.497847,75.4475101 C130.497847,77.7952531 130.925932,79.5415082 131.782101,80.6862753 L131.782101,80.6862753 L131.782101,80.6862753 C132.638272,81.8310425 134.029549,82.4034261 135.955931,82.4034261 L135.955931,82.4034261 L135.955931,82.4034261 C138.096356,82.4034261 139.964365,81.6467155 141.559955,80.1332945 L141.559955,80.1332945 L141.559955,80.1332945 C143.136086,78.6198734 143.924152,76.7280972 143.924152,74.4579655 L143.924152,74.4579655 L143.924152,41.2791195 L143.924152,41.2791195 C143.924152,37.8836234 143.466879,35.4097621 142.552334,33.8575354 L142.552334,33.8575354 L142.552334,33.8575354 C141.61833,32.3053088 140.003281,31.5291954 137.707189,31.5291954 L137.707189,31.5291954 L137.707189,29.2008552 L137.707189,29.2008552 C140.003281,29.4336893 142.299374,29.5501063 144.595467,29.5501063 L144.595467,29.5501063 L144.595467,29.5501063 C152.28154,29.5501063 158.712545,29.0359311 163.888483,28.007581 L163.888483,28.007581 Z M261.929698,8.30400304 L261.929698,8.30400304 C261.423779,15.2308147 261.170819,21.4300202 261.170819,26.9016195 L261.170819,26.9016195 L261.170819,26.9016195 C261.170819,30.2777125 261.27784,32.9261994 261.491883,34.8470799 L261.491883,34.8470799 L258.95256,34.8470799 L258.95256,34.8470799 C257.181845,26.2904302 254.457667,20.1494332 250.780027,16.4240891 L250.780027,16.4240891 L250.780027,16.4240891 C247.121845,12.7181478 243.045307,10.8651771 238.550414,10.8651771 L238.550414,10.8651771 L237.091033,10.8651771 L237.091033,10.8651771 C235.106275,10.8651771 233.646894,11.0301013 232.71289,11.3599494 L232.71289,11.3599494 L232.71289,11.3599494 C231.798345,11.6897976 231.175676,12.3106883 230.844883,13.2226215 L230.844883,13.2226215 L230.844883,13.2226215 C230.494631,14.1539575 230.319505,15.6867814 230.319505,17.8210932 L230.319505,17.8210932 L230.319505,46.1395294 L231.428634,46.1395294 L231.428634,46.1395294 C235.2814,46.1395294 238.579602,44.6261083 241.323238,41.5992662 L241.323238,41.5992662 L241.323238,41.5992662 C244.047415,38.5724241 245.779215,35.2157339 246.518634,31.5291954 L246.518634,31.5291954 L249.087145,31.5291954 L249.087145,31.5291954 C248.853644,34.6336488 248.736894,38.0970547 248.736894,41.919413 L248.736894,41.919413 L248.736894,47.2454908 L248.736894,47.2454908 C248.736894,51.0096406 248.960665,56.2387044 249.408209,62.9326821 L249.408209,62.9326821 L246.868885,62.9326821 L246.868885,62.9326821 C246.187841,58.7416701 244.465772,55.2588613 241.702677,52.484256 L241.702677,52.484256 L241.702677,52.484256 C238.920124,49.7290536 235.495443,48.3514524 231.428634,48.3514524 L231.428634,48.3514524 L230.319505,48.3514524 L230.319505,73.7885679 L230.319505,73.7885679 C230.319505,76.8736184 230.640569,79.1243471 231.282697,80.5407541 L231.282697,80.5407541 L231.282697,80.5407541 C231.905366,81.9377581 233.053412,82.8690941 234.726836,83.3347622 L234.726836,83.3347622 L234.726836,83.3347622 C236.380801,83.8198331 239.017416,84.0623684 242.636681,84.0623684 L242.636681,84.0623684 L242.636681,86.6235425 L242.636681,86.6235425 C232.654515,86.3907085 225.036546,86.2742915 219.782775,86.2742915 L219.782775,86.2742915 L219.782775,86.2742915 C216.319177,86.2742915 211.483762,86.3519029 205.276528,86.5071255 L205.276528,86.5071255 L199.935193,86.6235425 L199.935193,84.4116195 L199.935193,84.4116195 C202.30912,84.2563969 204.03119,83.9556528 205.101402,83.5093877 L205.101402,83.5093877 L205.101402,83.5093877 C206.171615,83.0631226 206.891576,82.2190993 207.261286,80.9773179 L207.261286,80.9773179 L207.261286,80.9773179 C207.630996,79.7161337 207.815851,77.6885375 207.815851,74.8945294 L207.815851,74.8945294 L207.815851,20.0330162 L207.815851,20.0330162 C207.815851,17.2390081 207.611537,15.2114119 207.202911,13.9502277 L207.202911,13.9502277 L207.202911,13.9502277 C206.794284,12.6890435 206.074323,11.8450203 205.043027,11.4181579 L205.043027,11.4181579 L205.043027,11.4181579 C204.011731,10.9718927 202.30912,10.6711488 199.935193,10.5159261 L199.935193,10.5159261 L199.935193,8.30400304 L199.935193,8.30400304 C208.516354,8.53683704 221.456198,8.65325405 238.754727,8.65325405 L238.754727,8.65325405 L238.754727,8.65325405 C249.631981,8.65325405 257.35697,8.53683704 261.929698,8.30400304 L261.929698,8.30400304 Z M301.216233,76.1169079 L301.216233,76.1169079 C306.606215,76.1169079 311.07192,73.6430465 314.613351,68.6953239 L314.613351,68.6953239 L316.510546,69.3647217 L316.510546,69.3647217 C314.876039,74.5258754 312.122675,78.9497216 308.250449,82.6362601 L308.250449,82.6362601 L308.250449,82.6362601 C304.358768,86.3227987 299.387142,88.1660679 293.335576,88.1660679 L293.335576,88.1660679 L293.335576,88.1660679 C285.571668,88.1660679 279.354706,85.7698179 274.684687,80.9773179 L274.684687,80.9773179 L274.684687,80.9773179 C270.034127,76.1848178 267.708846,68.5109971 267.708846,57.9558552 L267.708846,57.9558552 L267.708846,57.9558552 C267.708846,47.8663814 270.316273,40.2895749 275.531128,35.2254353 L275.531128,35.2254353 L275.531128,35.2254353 C280.745982,30.1806985 287.64399,27.6583299 296.22515,27.6583299 L296.22515,27.6583299 L296.22515,27.6583299 C310.196292,27.6583299 317.181861,35.914236 317.181861,52.4260476 L317.181861,52.4260476 L288.548806,52.4260476 L288.548806,52.4260476 C288.490431,53.3185781 288.461243,54.6476719 288.461243,56.4133299 L288.461243,56.4133299 L288.461243,56.4133299 C288.461243,63.4953643 289.696853,68.5498027 292.168071,71.5766448 L292.168071,71.5766448 L292.168071,71.5766448 C294.63929,74.6034869 297.655343,76.1169079 301.216233,76.1169079 L301.216233,76.1169079 Z M295.437085,30.2195041 L295.437085,30.2195041 C291.292443,30.2195041 288.850411,36.9231831 288.110992,50.3305415 L288.110992,50.3305415 L300.982732,50.3305415 L300.982732,50.3305415 C301.060567,44.4320798 300.632481,39.6007741 299.698477,35.8366245 L299.698477,35.8366245 L299.698477,35.8366245 C298.783932,32.0918774 297.363468,30.2195041 295.437085,30.2195041 L295.437085,30.2195041 Z M366.187875,27.6583299 L366.187875,27.6583299 C372.103233,27.6583299 376.286791,29.1329455 378.73855,32.0821761 L378.73855,32.0821761 L378.73855,32.0821761 C379.84768,33.4209717 380.655205,35.2157339 381.161122,37.4664625 L381.161122,37.4664625 L381.161122,37.4664625 C381.6865,39.6977885 381.949188,42.6567205 381.949188,46.3432592 L381.949188,46.3432592 L381.949188,76.3206377 L381.949188,76.3206377 C381.949188,79.3474798 382.41619,81.4332846 383.350194,82.5780516 L383.350194,82.5780516 L383.350194,82.5780516 C384.264739,83.7228187 385.870058,84.2952024 388.166151,84.2952024 L388.166151,84.2952024 L388.166151,86.6235425 L388.166151,86.6235425 C380.168743,86.3130971 374.992807,86.1578745 372.638338,86.1578745 L372.638338,86.1578745 L372.638338,86.1578745 C370.128202,86.1578745 364.874431,86.3130971 356.877023,86.6235425 L356.877023,86.6235425 L356.877023,84.2952024 L356.877023,84.2952024 C358.803406,84.2952024 360.136308,83.7228187 360.875728,82.5780516 L360.875728,82.5780516 L360.875728,82.5780516 C361.615146,81.4332846 361.984857,79.3474798 361.984857,76.3206377 L361.984857,76.3206377 L361.984857,40.3768877 L361.984857,40.3768877 C361.984857,38.0291447 361.556771,36.2828896 360.700601,35.1381225 L360.700601,35.1381225 L360.700601,35.1381225 C359.863889,33.9933553 358.482343,33.4209717 356.55596,33.4209717 L356.55596,33.4209717 L356.55596,33.4209717 C354.415535,33.4209717 352.547528,34.1776821 350.951937,35.6911032 L350.951937,35.6911032 L350.951937,35.6911032 C349.356346,37.2045242 348.558552,39.0963006 348.558552,41.3664321 L348.558552,41.3664321 L348.558552,76.3206377 L348.558552,76.3206377 C348.558552,79.3474798 348.928263,81.4332846 349.667681,82.5780516 L349.667681,82.5780516 L349.667681,82.5780516 C350.407101,83.7228187 351.740003,84.2952024 353.666386,84.2952024 L353.666386,84.2952024 L353.666386,86.6235425 L353.666386,86.6235425 C346.272189,86.3130971 341.388126,86.1578745 339.0142,86.1578745 L339.0142,86.1578745 L339.0142,86.1578745 C336.504065,86.1578745 330.958417,86.3130971 322.377258,86.6235425 L322.377258,86.6235425 L322.377258,84.2952024 L322.377258,84.2952024 C324.673351,84.2952024 326.288398,83.7228187 327.222402,82.5780516 L327.222402,82.5780516 L327.222402,82.5780516 C328.136946,81.4332846 328.59422,79.3474798 328.59422,76.3206377 L328.59422,76.3206377 L328.59422,41.2791195 L328.59422,41.2791195 C328.59422,37.8836234 328.136946,35.4097621 327.222402,33.8575354 L327.222402,33.8575354 L327.222402,33.8575354 C326.288398,32.3053088 324.673351,31.5291954 322.377258,31.5291954 L322.377258,31.5291954 L322.377258,29.2008552 L322.377258,29.2008552 C324.751182,29.4336893 327.047276,29.5501063 329.265535,29.5501063 L329.265535,29.5501063 L329.265535,29.5501063 C336.951607,29.5501063 343.382615,29.0359311 348.558552,28.007581 L348.558552,28.007581 L348.558552,35.9530415 L348.558552,35.9530415 C351.885941,30.4232338 357.76238,27.6583299 366.187875,27.6583299 L366.187875,27.6583299 Z M446.599765,40.3768877 L446.599765,40.3768877 C445.06255,40.3768877 443.71992,39.8433098 442.571874,38.7761538 L442.571874,38.7761538 L442.571874,38.7761538 C441.423829,37.7089979 440.849804,36.2149798 440.849804,34.2940992 L440.849804,34.2940992 L440.849804,34.2940992 C440.849804,32.5284412 441.365454,30.6172623 442.396749,28.5605617 L442.396749,28.5605617 L442.396749,28.5605617 C439.147195,29.8799543 436.744079,31.7523281 435.187407,34.1776821 L435.187407,34.1776821 L435.187407,34.1776821 C437.931042,37.0687043 439.302861,40.7940485 439.302861,45.3537146 L439.302861,45.3537146 L439.302861,45.3537146 C439.302861,51.1745647 437.133248,55.579008 432.794022,58.5670445 L432.794022,58.5670445 L432.794022,58.5670445 C428.474254,61.5550811 422.695106,63.0490992 415.456576,63.0490992 L415.456576,63.0490992 L415.456576,63.0490992 C414.03611,63.0490992 412.995088,63.0102936 412.333501,62.9326821 L412.333501,62.9326821 L412.333501,62.9326821 C410.407118,64.2714777 409.443926,65.8237043 409.443926,67.5893623 L409.443926,67.5893623 L409.443926,67.5893623 C409.443926,69.956508 410.776829,71.140081 413.44263,71.140081 L413.44263,71.140081 L424.212861,71.140081 L424.212861,71.140081 C431.743267,71.140081 437.639167,72.4109667 441.900559,74.9527378 L441.900559,74.9527378 L441.900559,74.9527378 C446.142492,77.4945091 448.263461,81.4526871 448.263461,86.8272723 L448.263461,86.8272723 L448.263461,86.8272723 C448.263461,90.6690334 447.027852,94.1324393 444.556632,97.2174899 L444.556632,97.2174899 L444.556632,97.2174899 C442.085413,100.321943 438.281294,102.795805 433.144273,104.639074 L433.144273,104.639074 L433.144273,104.639074 C428.007252,106.482343 421.585975,107.403978 413.880444,107.403978 L413.880444,107.403978 L413.880444,107.403978 C406.272203,107.403978 400.288742,106.559954 395.930058,104.871908 L395.930058,104.871908 L395.930058,104.871908 C391.571375,103.164458 389.392031,100.768208 389.392031,97.6831579 L389.392031,97.6831579 L389.392031,97.6831579 C389.392031,95.5294433 390.462245,93.5697572 392.60267,91.8040992 L392.60267,91.8040992 L392.60267,91.8040992 C394.743094,90.0384412 397.992651,88.6414371 402.351334,87.613087 L402.351334,87.613087 L403.460464,89.3884464 L403.460464,89.3884464 C401.475706,91.8138005 400.483327,94.1712448 400.483327,96.4607794 L400.483327,96.4607794 L400.483327,96.4607794 C400.483327,99.3323988 401.79677,101.563725 404.423656,103.154757 L404.423656,103.154757 L404.423656,103.154757 C407.031082,104.726387 410.708722,105.512201 415.456576,105.512201 L415.456576,105.512201 L415.456576,105.512201 C420.32118,105.512201 424.066923,104.54206 426.693809,102.601776 L426.693809,102.601776 L426.693809,102.601776 C429.320695,100.64209 430.634138,98.0421102 430.634138,94.801837 L430.634138,94.801837 L430.634138,94.801837 C430.634138,92.5123026 429.768238,90.6884363 428.03644,89.3302378 L428.03644,89.3302378 L428.03644,89.3302378 C426.304642,87.9526368 423.24967,87.2638361 418.871528,87.2638361 L418.871528,87.2638361 L412.888066,87.2638361 L412.888066,87.2638361 C407.867794,87.2638361 404.024757,86.3130971 401.358955,84.4116195 L401.358955,84.4116195 L401.358955,84.4116195 C398.693154,82.4907389 397.360252,79.9101618 397.360252,76.6698886 L397.360252,76.6698886 L397.360252,76.6698886 C397.360252,73.720658 398.411006,71.140081 400.512515,68.9281579 L400.512515,68.9281579 L400.512515,68.9281579 C402.633483,66.7162348 405.688452,64.649833 409.677427,62.7289524 L409.677427,62.7289524 L409.677427,62.7289524 C404.053945,61.9916449 399.636886,60.1677783 396.426248,57.2573532 L396.426248,57.2573532 L396.426248,57.2573532 C393.215609,54.3469282 391.610291,50.3790487 391.610291,45.3537146 L391.610291,45.3537146 L391.610291,45.3537146 C391.610291,39.5328644 393.770175,35.1284211 398.089942,32.1403846 L398.089942,32.1403846 L398.089942,32.1403846 C402.40971,29.152348 408.198586,27.6583299 415.456576,27.6583299 L415.456576,27.6583299 L415.456576,27.6583299 C423.220483,27.6583299 429.203945,29.2784667 433.406961,32.5187399 L433.406961,32.5187399 L433.406961,32.5187399 C434.807967,30.6172623 436.510578,29.1135425 438.514795,28.007581 L438.514795,28.007581 L438.514795,28.007581 C440.519012,26.9016195 442.63025,26.3486386 444.848509,26.3486386 L444.848509,26.3486386 L444.848509,26.3486386 C447.280809,26.3486386 449.158548,27.0277378 450.481719,28.3859362 L450.481719,28.3859362 L450.481719,28.3859362 C451.82435,29.7441347 452.495665,31.4903898 452.495665,33.6247014 L452.495665,33.6247014 L452.495665,33.6247014 C452.495665,35.7008045 451.9411,37.3500456 450.831971,38.5724241 L450.831971,38.5724241 L450.831971,38.5724241 C449.72284,39.7753997 448.312107,40.3768877 446.599765,40.3768877 L446.599765,40.3768877 Z M415.456576,61.0700101 L415.456576,61.0700101 C416.935416,61.0700101 418.064002,59.8670346 418.84234,57.461083 L418.84234,57.461083 L418.84234,57.461083 C419.601218,55.0745345 419.980657,51.0387448 419.980657,45.3537146 L419.980657,45.3537146 L419.980657,45.3537146 C419.980657,39.6880869 419.601218,35.6522977 418.84234,33.2463462 L418.84234,33.2463462 L418.84234,33.2463462 C418.064002,30.8597976 416.935416,29.6665233 415.456576,29.6665233 L415.456576,29.6665233 L415.456576,29.6665233 C413.977735,29.6665233 412.849149,30.8597976 412.070812,33.2463462 L412.070812,33.2463462 L412.070812,33.2463462 C411.292475,35.6522977 410.903307,39.6880869 410.903307,45.3537146 L410.903307,45.3537146 L410.903307,45.3537146 C410.903307,51.0387448 411.292475,55.0745345 412.070812,57.461083 L412.070812,57.461083 L412.070812,57.461083 C412.849149,59.8670346 413.977735,61.0700101 415.456576,61.0700101 L415.456576,61.0700101 Z M480.544967,11.3017408 L480.544967,29.2008552 L491.431949,29.2008552 L491.431949,31.4127783 L480.544967,31.4127783 L480.544967,77.3101821 L480.544967,77.3101821 C480.544967,78.7847977 480.807655,79.8228491 481.333033,80.424337 L481.333033,80.424337 L481.333033,80.424337 C481.83895,81.006422 482.685392,81.2974646 483.872356,81.2974646 L483.872356,81.2974646 L483.872356,81.2974646 C484.767443,81.2974646 485.769551,81.0452276 486.87868,80.5407541 L486.87868,80.5407541 L486.87868,80.5407541 C487.98781,80.0168775 488.980189,79.2019585 489.855818,78.095997 L489.855818,78.095997 L491.519512,79.4347925 L491.519512,79.4347925 C488.133748,85.2556427 482.889705,88.1660679 475.787385,88.1660679 L475.787385,88.1660679 L475.787385,88.1660679 C470.68928,88.1660679 466.875433,86.914585 464.345839,84.4116195 L464.345839,84.4116195 L464.345839,84.4116195 C462.808623,82.8593928 461.796787,80.9385123 461.310326,78.6489777 L461.310326,78.6489777 L461.310326,78.6489777 C460.823865,76.3594433 460.580635,73.1482742 460.580635,69.0154706 L460.580635,69.0154706 L460.580635,31.4127783 L452.145413,31.4127783 L452.145413,29.2008552 L460.580635,29.2008552 L460.580635,16.1621508 L460.580635,16.1621508 C464.569611,16.1621508 468.179145,15.7740941 471.409242,14.9979807 L471.409242,14.9979807 L471.409242,14.9979807 C474.61988,14.2218674 477.665121,12.9897875 480.544967,11.3017408 L480.544967,11.3017408 Z M509.265585,0.125708502 L509.265585,0.125708502 C513.11835,0.125708502 516.095488,0.94062753 518.196996,2.57046559 L518.196996,2.57046559 L518.196996,2.57046559 C520.317965,4.1809008 521.378447,6.53834513 521.378447,9.64279858 L521.378447,9.64279858 L521.378447,9.64279858 C521.378447,12.7278492 520.317965,15.0852935 518.196996,16.7151316 L518.196996,16.7151316 L518.196996,16.7151316 C516.095488,18.3449696 513.11835,19.1598886 509.265585,19.1598886 L509.265585,19.1598886 L509.265585,19.1598886 C505.354443,19.1598886 502.367578,18.3449696 500.304985,16.7151316 L500.304985,16.7151316 L500.304985,16.7151316 C498.222937,15.0852935 497.18191,12.7278492 497.18191,9.64279858 L497.18191,9.64279858 L497.18191,9.64279858 C497.18191,6.53834513 498.222937,4.1809008 500.304985,2.57046559 L500.304985,2.57046559 L500.304985,2.57046559 C502.367578,0.94062753 505.354443,0.125708502 509.265585,0.125708502 L509.265585,0.125708502 Z M519.919066,28.007581 L519.919066,76.3206377 L519.919066,76.3206377 C519.919066,79.3474798 520.386068,81.4332846 521.320072,82.5780516 L521.320072,82.5780516 L521.320072,82.5780516 C522.234616,83.7228187 523.839935,84.2952024 526.136029,84.2952024 L526.136029,84.2952024 L526.136029,86.6235425 L526.136029,86.6235425 C518.158081,86.3130971 512.904309,86.1578745 510.374714,86.1578745 L510.374714,86.1578745 L510.374714,86.1578745 C507.864579,86.1578745 502.318931,86.3130971 493.737772,86.6235425 L493.737772,86.6235425 L493.737772,84.2952024 L493.737772,84.2952024 C496.033865,84.2952024 497.648912,83.7228187 498.582916,82.5780516 L498.582916,82.5780516 L498.582916,82.5780516 C499.49746,81.4332846 499.954734,79.3474798 499.954734,76.3206377 L499.954734,76.3206377 L499.954734,41.2791195 L499.954734,41.2791195 C499.954734,37.8836234 499.49746,35.4097621 498.582916,33.8575354 L498.582916,33.8575354 L498.582916,33.8575354 C497.648912,32.3053088 496.033865,31.5291954 493.737772,31.5291954 L493.737772,31.5291954 L493.737772,29.2008552 L493.737772,29.2008552 C496.111696,29.4336893 498.40779,29.5501063 500.626049,29.5501063 L500.626049,29.5501063 L500.626049,29.5501063 C508.312121,29.5501063 514.743129,29.0359311 519.919066,28.007581 L519.919066,28.007581 Z M574.149662,27.6583299 L574.149662,27.6583299 C580.065021,27.6583299 584.24858,29.1329455 586.700339,32.0821761 L586.700339,32.0821761 L586.700339,32.0821761 C587.809469,33.4209717 588.616994,35.2157339 589.122911,37.4664625 L589.122911,37.4664625 L589.122911,37.4664625 C589.648289,39.6977885 589.910977,42.6567205 589.910977,46.3432592 L589.910977,46.3432592 L589.910977,76.3206377 L589.910977,76.3206377 C589.910977,79.3474798 590.377979,81.4332846 591.311983,82.5780516 L591.311983,82.5780516 L591.311983,82.5780516 C592.226528,83.7228187 593.831846,84.2952024 596.12794,84.2952024 L596.12794,84.2952024 L596.12794,86.6235425 L596.12794,86.6235425 C588.130532,86.3130971 582.954595,86.1578745 580.600127,86.1578745 L580.600127,86.1578745 L580.600127,86.1578745 C578.089991,86.1578745 572.83622,86.3130971 564.838812,86.6235425 L564.838812,86.6235425 L564.838812,84.2952024 L564.838812,84.2952024 C566.765195,84.2952024 568.098097,83.7228187 568.837517,82.5780516 L568.837517,82.5780516 L568.837517,82.5780516 C569.576935,81.4332846 569.946646,79.3474798 569.946646,76.3206377 L569.946646,76.3206377 L569.946646,40.3768877 L569.946646,40.3768877 C569.946646,38.0291447 569.518559,36.2828896 568.66239,35.1381225 L568.66239,35.1381225 L568.66239,35.1381225 C567.825677,33.9933553 566.444132,33.4209717 564.517749,33.4209717 L564.517749,33.4209717 L564.517749,33.4209717 C562.377324,33.4209717 560.509317,34.1776821 558.913726,35.6911032 L558.913726,35.6911032 L558.913726,35.6911032 C557.318135,37.2045242 556.520341,39.0963006 556.520341,41.3664321 L556.520341,41.3664321 L556.520341,76.3206377 L556.520341,76.3206377 C556.520341,79.3474798 556.890052,81.4332846 557.62947,82.5780516 L557.62947,82.5780516 L557.62947,82.5780516 C558.368888,83.7228187 559.701792,84.2952024 561.628175,84.2952024 L561.628175,84.2952024 L561.628175,86.6235425 L561.628175,86.6235425 C554.233978,86.3130971 549.349915,86.1578745 546.975989,86.1578745 L546.975989,86.1578745 L546.975989,86.1578745 C544.465854,86.1578745 538.920206,86.3130971 530.339047,86.6235425 L530.339047,86.6235425 L530.339047,84.2952024 L530.339047,84.2952024 C532.63514,84.2952024 534.250187,83.7228187 535.18419,82.5780516 L535.18419,82.5780516 L535.18419,82.5780516 C536.098735,81.4332846 536.556009,79.3474798 536.556009,76.3206377 L536.556009,76.3206377 L536.556009,41.2791195 L536.556009,41.2791195 C536.556009,37.8836234 536.098735,35.4097621 535.18419,33.8575354 L535.18419,33.8575354 L535.18419,33.8575354 C534.250187,32.3053088 532.63514,31.5291954 530.339047,31.5291954 L530.339047,31.5291954 L530.339047,29.2008552 L530.339047,29.2008552 C532.712971,29.4336893 535.009065,29.5501063 537.227324,29.5501063 L537.227324,29.5501063 L537.227324,29.5501063 C544.913396,29.5501063 551.344404,29.0359311 556.520341,28.007581 L556.520341,28.007581 L556.520341,35.9530415 L556.520341,35.9530415 C559.847729,30.4232338 565.724169,27.6583299 574.149662,27.6583299 L574.149662,27.6583299 Z M654.561554,40.3768877 L654.561554,40.3768877 C653.024339,40.3768877 651.681709,39.8433098 650.533663,38.7761538 L650.533663,38.7761538 L650.533663,38.7761538 C649.385617,37.7089979 648.811593,36.2149798 648.811593,34.2940992 L648.811593,34.2940992 L648.811593,34.2940992 C648.811593,32.5284412 649.327243,30.6172623 650.358537,28.5605617 L650.358537,28.5605617 L650.358537,28.5605617 C647.108983,29.8799543 644.705868,31.7523281 643.149196,34.1776821 L643.149196,34.1776821 L643.149196,34.1776821 C645.892831,37.0687043 647.26465,40.7940485 647.26465,45.3537146 L647.26465,45.3537146 L647.26465,45.3537146 C647.26465,51.1745647 645.095037,55.579008 640.755811,58.5670445 L640.755811,58.5670445 L640.755811,58.5670445 C636.436043,61.5550811 630.656894,63.0490992 623.418365,63.0490992 L623.418365,63.0490992 L623.418365,63.0490992 C621.997899,63.0490992 620.956877,63.0102936 620.295289,62.9326821 L620.295289,62.9326821 L620.295289,62.9326821 C618.368907,64.2714777 617.405715,65.8237043 617.405715,67.5893623 L617.405715,67.5893623 L617.405715,67.5893623 C617.405715,69.956508 618.738617,71.140081 621.404419,71.140081 L621.404419,71.140081 L632.17465,71.140081 L632.17465,71.140081 C639.705056,71.140081 645.600956,72.4109667 649.862348,74.9527378 L649.862348,74.9527378 L649.862348,74.9527378 C654.104281,77.4945091 656.225248,81.4526871 656.225248,86.8272723 L656.225248,86.8272723 L656.225248,86.8272723 C656.225248,90.6690334 654.98964,94.1324393 652.518421,97.2174899 L652.518421,97.2174899 L652.518421,97.2174899 C650.047202,100.321943 646.243083,102.795805 641.106062,104.639074 L641.106062,104.639074 L641.106062,104.639074 C635.969041,106.482343 629.547764,107.403978 621.842233,107.403978 L621.842233,107.403978 L621.842233,107.403978 C614.233992,107.403978 608.25053,106.559954 603.891847,104.871908 L603.891847,104.871908 L603.891847,104.871908 C599.533164,103.164458 597.35382,100.768208 597.35382,97.6831579 L597.35382,97.6831579 L597.35382,97.6831579 C597.35382,95.5294433 598.424034,93.5697572 600.564459,91.8040992 L600.564459,91.8040992 L600.564459,91.8040992 C602.704883,90.0384412 605.95444,88.6414371 610.313123,87.613087 L610.313123,87.613087 L611.422253,89.3884464 L611.422253,89.3884464 C609.437495,91.8138005 608.445116,94.1712448 608.445116,96.4607794 L608.445116,96.4607794 L608.445116,96.4607794 C608.445116,99.3323988 609.758559,101.563725 612.385445,103.154757 L612.385445,103.154757 L612.385445,103.154757 C614.992871,104.726387 618.670511,105.512201 623.418365,105.512201 L623.418365,105.512201 L623.418365,105.512201 C628.282969,105.512201 632.028712,104.54206 634.655598,102.601776 L634.655598,102.601776 L634.655598,102.601776 C637.282484,100.64209 638.595927,98.0421102 638.595927,94.801837 L638.595927,94.801837 L638.595927,94.801837 C638.595927,92.5123026 637.730027,90.6884363 635.998229,89.3302378 L635.998229,89.3302378 L635.998229,89.3302378 C634.26643,87.9526368 631.211458,87.2638361 626.833316,87.2638361 L626.833316,87.2638361 L620.849854,87.2638361 L620.849854,87.2638361 C615.829583,87.2638361 611.986546,86.3130971 609.320744,84.4116195 L609.320744,84.4116195 L609.320744,84.4116195 C606.654943,82.4907389 605.32204,79.9101618 605.32204,76.6698886 L605.32204,76.6698886 L605.32204,76.6698886 C605.32204,73.720658 606.372795,71.140081 608.474303,68.9281579 L608.474303,68.9281579 L608.474303,68.9281579 C610.595272,66.7162348 613.65024,64.649833 617.639216,62.7289524 L617.639216,62.7289524 L617.639216,62.7289524 C612.015734,61.9916449 607.598675,60.1677783 604.388037,57.2573532 L604.388037,57.2573532 L604.388037,57.2573532 C601.177398,54.3469282 599.57208,50.3790487 599.57208,45.3537146 L599.57208,45.3537146 L599.57208,45.3537146 C599.57208,39.5328644 601.731963,35.1284211 606.051731,32.1403846 L606.051731,32.1403846 L606.051731,32.1403846 C610.371499,29.152348 616.160375,27.6583299 623.418365,27.6583299 L623.418365,27.6583299 L623.418365,27.6583299 C631.182272,27.6583299 637.165734,29.2784667 641.36875,32.5187399 L641.36875,32.5187399 L641.36875,32.5187399 C642.769756,30.6172623 644.472367,29.1135425 646.476584,28.007581 L646.476584,28.007581 L646.476584,28.007581 C648.480801,26.9016195 650.592038,26.3486386 652.810298,26.3486386 L652.810298,26.3486386 L652.810298,26.3486386 C655.242598,26.3486386 657.120336,27.0277378 658.443508,28.3859362 L658.443508,28.3859362 L658.443508,28.3859362 C659.786139,29.7441347 660.457454,31.4903898 660.457454,33.6247014 L660.457454,33.6247014 L660.457454,33.6247014 C660.457454,35.7008045 659.902889,37.3500456 658.79376,38.5724241 L658.79376,38.5724241 L658.79376,38.5724241 C657.684629,39.7753997 656.273896,40.3768877 654.561554,40.3768877 L654.561554,40.3768877 Z M623.418365,61.0700101 L623.418365,61.0700101 C624.897205,61.0700101 626.02579,59.8670346 626.804129,57.461083 L626.804129,57.461083 L626.804129,57.461083 C627.563007,55.0745345 627.942446,51.0387448 627.942446,45.3537146 L627.942446,45.3537146 L627.942446,45.3537146 C627.942446,39.6880869 627.563007,35.6522977 626.804129,33.2463462 L626.804129,33.2463462 L626.804129,33.2463462 C626.02579,30.8597976 624.897205,29.6665233 623.418365,29.6665233 L623.418365,29.6665233 L623.418365,29.6665233 C621.939524,29.6665233 620.810938,30.8597976 620.032601,33.2463462 L620.032601,33.2463462 L620.032601,33.2463462 C619.254264,35.6522977 618.865096,39.6880869 618.865096,45.3537146 L618.865096,45.3537146 L618.865096,45.3537146 C618.865096,51.0387448 619.254264,55.0745345 620.032601,57.461083 L620.032601,57.461083 L620.032601,57.461083 C620.810938,59.8670346 621.939524,61.0700101 623.418365,61.0700101 L623.418365,61.0700101 Z" id="形状"></path>
                </g>
            </g>
            <g id="SvgjsG1011" transform="translate(1.000000, 1.000000)" fill-rule="nonzero">
                <g id="编组">
                    <g id="路径">
                        <polygon fill="#FB543A" points="0 149.861539 78.35625 202.430769 78.553125 97.2923077"></polygon>
                        <polygon fill="#DADADA" points="157.303125 149.665384 78.946875 97.0961539 78.75 202.234616"></polygon>
                        <polygon fill="#E9E3C5" points="235.85625 0 157.303125 52.7653847 235.85625 97.0961539"></polygon>
                        <path d="M157.303125,149.861539 L235.659375,202.430769 L314.2125,149.861539 L235.85625,97.2923077 L157.303125,149.861539 C157.10625,149.861539 157.303125,149.861539 157.303125,149.861539 L157.303125,149.861539 Z" fill="#000000"></path>
                        <polygon fill="#DADADA" points="78.75 0 157.303125 52.7653847 78.75 97.0961539"></polygon>
                        <polygon fill="#FB543A" points="78.75 0 0.196875 52.7653847 78.75 97.0961539"></polygon>
                        <polygon fill="#E9E3C5" points="78.75 202.430769 157.10625 255 157.303125 149.861539"></polygon>
                        <polygon fill="#DADADA" points="236.053125 202.234616 157.5 149.861539 157.5 255"></polygon>
                        <polygon fill="#E9E3C5" points="157.5 149.861539 235.85625 202.430769 236.053125 97.2923077"></polygon>
                        <polygon fill="#FB543A" points="314.803125 149.665384 236.25 97.0961539 236.053125 202.234616"></polygon>
                        <polygon fill="#E9E3C5" points="0.196875 149.665384 78.75 97.0961539 0.196875 52.7653847"></polygon>
                        <polygon fill="#E9E3C5" points="157.5 149.665384 78.946875 97.0961539 157.5 52.7653847"></polygon>
                        <polygon fill="#FB543A" points="157.5 149.665384 236.053125 96.9 157.5 52.7653847"></polygon>
                        <polygon fill="#DADADA" points="236.053125 0 314.60625 52.7653847 236.053125 97.0961539"></polygon>
                        <polygon fill="#E9E3C5" points="315 149.665384 236.446875 96.9 315 52.7653847"></polygon>
                    </g>
                </g>
            </g>
        </g>
    </g>
</svg>